<?xml version="1.0" encoding="UTF-8"?>
<svg version="1.1" xmlns="http://www.w3.org/2000/svg" width="225" height="225">
<path d="M0 0 C74.25 0 148.5 0 225 0 C225 74.25 225 148.5 225 225 C150.75 225 76.5 225 0 225 C0 150.75 0 76.5 0 0 Z " fill="#F3F3F3" transform="translate(0,0)"/>
<path d="M0 0 C14.71820092 11.32855465 24.23081873 26.90425314 28.015625 44.984375 C28.29599609 46.09619141 28.29599609 46.09619141 28.58203125 47.23046875 C29.23766341 51.39461896 29.2000119 55.52546253 29.203125 59.734375 C29.21537109 60.5903125 29.22761719 61.44625 29.24023438 62.328125 C29.25345676 68.14597577 28.5142851 73.37006336 27.015625 78.984375 C26.76683594 79.97824219 26.51804688 80.97210938 26.26171875 81.99609375 C20.39243459 101.41860412 6.252288 116.09998364 -11.21484375 125.7734375 C-28.35219514 134.2481813 -49.08073681 136.07029014 -67.421875 130.37890625 C-87.596219 122.48171238 -102.73743022 109.23639421 -112.234375 89.609375 C-120.09090629 71.45952732 -120.82126969 50.88467007 -113.578125 32.39453125 C-105.37174704 12.80737409 -90.55430181 -1.70396574 -70.984375 -10.015625 C-47.30233025 -19.6836938 -20.65065613 -13.94730179 0 0 Z " fill="#129CB8" transform="translate(156.984375,53.015625)"/>
<path d="M0 0 C2.25 0 2.25 0 5 1 C6.26972878 2.99713273 7.19026384 5.00658616 8.10546875 7.1875 C8.86362971 9.18354008 8.86362971 9.18354008 11 10 C11.495 11.98 11.495 11.98 12 14 C14.31 11.36 16.62 8.72 19 6 C20.98 6.66 22.96 7.32 25 8 C22.38058783 9.74627478 20.96175123 10.38722388 18 11 C17.67 12.65 17.34 14.3 17 16 C17.99 16.33 18.98 16.66 20 17 C20 18.65 20 20.3 20 22 C20.66 22.33 21.32 22.66 22 23 C19.03 23.495 19.03 23.495 16 24 C15.505 25.485 15.505 25.485 15 27 C14.40832031 27.01417969 13.81664062 27.02835938 13.20703125 27.04296875 C7.75682562 27.28354621 7.75682562 27.28354621 3.5625 30.5625 C0.53754127 33.43989977 -0.28696181 33.33505203 -4.3125 33.3125 C-5.87642824 33.23259126 -7.43997572 33.1363128 -9 33 C-9 33.99 -9 34.98 -9 36 C-1.47927726 36.08662534 -1.47927726 36.08662534 4.6875 32.4375 C5.450625 31.633125 6.21375 30.82875 7 30 C10.5839564 29.20910704 13.81628828 29.31846901 17.0625 31.1875 C18.38135516 33.73728665 17.7975116 35.31746098 17 38 C18.32 38.33 19.64 38.66 21 39 C20.67 39.99 20.34 40.98 20 42 C18.82630859 41.98259766 18.82630859 41.98259766 17.62890625 41.96484375 C16.61699219 41.95582031 15.60507813 41.94679687 14.5625 41.9375 C13.55316406 41.92589844 12.54382813 41.91429687 11.50390625 41.90234375 C9.05978933 41.71387324 9.05978933 41.71387324 8 43 C5.13732433 43.07325168 2.299281 43.09238205 -0.5625 43.0625 C-1.36880859 43.05798828 -2.17511719 43.05347656 -3.00585938 43.04882812 C-5.00393756 43.03700518 -7.00197783 43.01906914 -9 43 C-9 43.99 -9 44.98 -9 46 C-7.17662109 45.98259766 -7.17662109 45.98259766 -5.31640625 45.96484375 C-3.73177236 45.95546722 -2.14713682 45.94636687 -0.5625 45.9375 C0.23994141 45.92912109 1.04238281 45.92074219 1.86914062 45.91210938 C3.91295221 45.9034857 5.95683902 45.9477185 8 46 C8.33 46.33 8.66 46.66 9 47 C11.33297433 47.04092937 13.66705225 47.04241723 16 47 C16.33 47.99 16.66 48.98 17 50 C18.9254644 52.2236068 18.9254644 52.2236068 22 53 C22.33 53.66 22.66 54.32 23 55 C19.535 55.495 19.535 55.495 16 56 C15.67 56.99 15.34 57.98 15 59 C12.14121082 59.24644734 9.80746043 59.43034065 7 59 C5.5411169 57.76312085 4.08251099 56.52071914 2.71875 55.1796875 C-0.68943664 52.84043212 -4.97960104 53.08739998 -9 53 C-9 53.99 -9 54.98 -9 56 C-8.41992188 55.94199219 -7.83984375 55.88398437 -7.2421875 55.82421875 C-0.87935833 55.45672862 1.09912744 56.81383803 6 61 C8.9966414 61.7021833 11.92793427 61.92490506 15 62 C15.33 62.99 15.66 63.98 16 65 C20.14984647 65.32231207 20.14984647 65.32231207 23.9375 63.875 C25.52513015 61.07329973 24.74070176 59.03014356 24 56 C24.99 55.67 25.98 55.34 27 55 C26.67 54.01 26.34 53.02 26 52 C28.97 51.505 28.97 51.505 32 51 C31.94199219 50.24074219 31.88398438 49.48148438 31.82421875 48.69921875 C31.68950853 45.73174507 31.63883847 42.95021106 32 40 C34.45694253 37.73702662 35.6796254 37 39 37 C43 41.47058824 43 41.47058824 43 44 C43.639375 44.268125 44.27875 44.53625 44.9375 44.8125 C47 46 47 46 48 49 C48.99 48.67 49.98 48.34 51 48 C51 49.32 51 50.64 51 52 C51.928125 52.37125 51.928125 52.37125 52.875 52.75 C55.35068687 54.20628639 55.95125002 55.37812506 57 58 C57.66 58 58.32 58 59 58 C58.70052441 65.17244032 57.36857105 70.67365925 54 77 C53.5153125 77.9384375 53.030625 78.876875 52.53125 79.84375 C42.89848632 97.47352504 27.60886533 109.44582371 8.58203125 115.80859375 C5.02830885 116.77536626 1.67712153 117.2298201 -2 117 C-1.505 115.515 -1.505 115.515 -1 114 C-2.32 113.67 -3.64 113.34 -5 113 C-5 112.34 -5 111.68 -5 111 C-5.639375 110.896875 -6.27875 110.79375 -6.9375 110.6875 C-7.618125 110.460625 -8.29875 110.23375 -9 110 C-9.33 109.01 -9.66 108.02 -10 107 C-11.65948148 105.98812105 -13.32580562 104.9873454 -15 104 C-15 103.34 -15 102.68 -15 102 C-15.78375 101.835 -16.5675 101.67 -17.375 101.5 C-20 100 -20 100 -20.77734375 98.0859375 C-21.26413052 96.07483301 -21.63853255 94.037362 -22 92 C-22.763125 91.896875 -23.52625 91.79375 -24.3125 91.6875 C-27.22636046 90.94209384 -28.02950397 90.15541061 -30 88 C-29.11957031 87.90203125 -28.23914063 87.8040625 -27.33203125 87.703125 C-26.17058594 87.55359375 -25.00914063 87.4040625 -23.8125 87.25 C-22.08966797 87.04117188 -22.08966797 87.04117188 -20.33203125 86.828125 C-16.45167455 85.86372216 -14.77521845 84.87002309 -12 82 C-11.49043334 79.31657987 -11.30733919 77.25227604 -11.34057617 74.56933594 C-11.32485062 73.45655273 -11.32485062 73.45655273 -11.30880737 72.32128906 C-11.28006232 69.87522529 -11.28634763 67.43057737 -11.29296875 64.984375 C-11.27985326 63.28613512 -11.26454949 61.58791083 -11.24714661 59.88970947 C-11.20726573 55.42459906 -11.19710422 50.95989642 -11.19311523 46.49462891 C-11.18378955 41.93639736 -11.14637961 37.37840598 -11.11132812 32.8203125 C-11.04672099 23.88021958 -11.01350658 14.94030593 -11 6 C-10.01 6 -9.02 6 -8 6 C-8 7.98 -8 9.96 -8 12 C-6.68 12 -5.36 12 -4 12 C-1.77054204 14.69072513 -0.94203424 16.16915749 -1.1875 19.6875 C-2 22 -2 22 -4 24 C-5.32 24 -6.64 24 -8 24 C-8 24.66 -8 25.32 -8 26 C-5.62625139 26.33425735 -5.62625139 26.33425735 -3 26 C-1.29467677 24.05990478 -1.29467677 24.05990478 0 22 C0.66 22 1.32 22 2 22 C2.09087891 20.71802734 2.09087891 20.71802734 2.18359375 19.41015625 C2.26738281 18.30542969 2.35117188 17.20070313 2.4375 16.0625 C2.51871094 14.96035156 2.59992188 13.85820313 2.68359375 12.72265625 C3 10 3 10 4 9 C4.41780879 6.62694422 4.41780879 6.62694422 4 4 C2.10415891 1.68622853 2.10415891 1.68622853 0 0 Z " fill="#0B8AA0" transform="translate(125,68)"/>
<path d="M0 0 C2.85005513 1.81367145 4.07261792 2.8557629 5.75 5.75 C6.15113831 9.00669861 6.15113831 9.00669861 6.18579102 12.91772461 C6.19586685 13.63204147 6.20594269 14.34635834 6.21632385 15.08232117 C6.24477658 17.43915535 6.25067863 19.79534862 6.25390625 22.15234375 C6.26354847 23.79374962 6.27364104 25.43515289 6.28416443 27.07655334 C6.30211845 30.51553322 6.30768615 33.95428712 6.3059082 37.39331055 C6.3056032 41.79660031 6.34657635 46.19844011 6.39822483 50.60138607 C6.43160612 53.99095799 6.43766531 57.3801799 6.43607903 60.76989937 C6.4396156 62.39302131 6.4528659 64.01615264 6.47607613 65.63911247 C6.50553324 67.91139764 6.49683211 70.18054331 6.47875977 72.45288086 C6.48517235 74.39003212 6.48517235 74.39003212 6.49171448 76.36631775 C5.45555554 81.09324801 3.72172244 82.087275 -0.25 84.75 C-4.89782013 86.29927338 -8.72815163 86.26742845 -13.375 84.6875 C-17.02567901 82.2272598 -19.31814599 79.7115234 -21.25 75.75 C-21.9375 72.125 -21.9375 72.125 -21.25 68.75 C-18.00874223 65.02255356 -15.7620324 63.57229247 -10.875 62.9375 C-9.67875 62.875625 -8.4825 62.81375 -7.25 62.75 C-7.25 62.09 -7.25 61.43 -7.25 60.75 C-11.705 61.245 -11.705 61.245 -16.25 61.75 C-16.25 58.78 -16.25 55.81 -16.25 52.75 C-16.91 52.75 -17.57 52.75 -18.25 52.75 C-18.1675 53.74 -18.085 54.73 -18 55.75 C-17.96209308 60.38412067 -19.96714715 63.82634666 -22.25 67.75 C-26.67741644 66.39717831 -28.61309221 64.51701112 -31.25 60.75 C-33.10437404 57.04125192 -32.71438653 52.79679692 -32.25 48.75 C-31.17473903 46.08767261 -29.90396201 44.12757038 -28.25 41.75 C-28.91 40.96625 -29.57 40.1825 -30.25 39.375 C-33.0882213 35.09739504 -33.056353 30.70907095 -32.25 25.75 C-30.23846676 21.79877398 -28.06917747 19.04150648 -24.25 16.75 C-23.59 16.75 -22.93 16.75 -22.25 16.75 C-18.65621058 22.14068413 -17.79643757 25.28673535 -18.25 31.75 C-17.59 31.75 -16.93 31.75 -16.25 31.75 C-16.25 28.78 -16.25 25.81 -16.25 22.75 C-13.28 23.08 -10.31 23.41 -7.25 23.75 C-7.25 23.09 -7.25 22.43 -7.25 21.75 C-8.301875 21.646875 -9.35375 21.54375 -10.4375 21.4375 C-15.13071677 20.59118222 -17.90336769 19.09663231 -21.25 15.75 C-21.73731968 11.52656276 -21.53064801 9.27120344 -19.5 5.5 C-14.19932116 -0.97860747 -8.10153655 -3.1159756 0 0 Z " fill="#F7FBFB" transform="translate(108.25,70.25)"/>
<path d="M0 0 C2.25 0 2.25 0 5 1 C6.26972878 2.99713273 7.19026384 5.00658616 8.10546875 7.1875 C8.86362971 9.18354008 8.86362971 9.18354008 11 10 C11.33 11.32 11.66 12.64 12 14 C14.31 11.36 16.62 8.72 19 6 C20.98 6.66 22.96 7.32 25 8 C22.38058783 9.74627478 20.96175123 10.38722388 18 11 C17.67 12.65 17.34 14.3 17 16 C17.99 16.33 18.98 16.66 20 17 C20 18.65 20 20.3 20 22 C20.66 22.33 21.32 22.66 22 23 C20.02 23.33 18.04 23.66 16 24 C15.67 24.99 15.34 25.98 15 27 C14.40832031 27.01417969 13.81664062 27.02835938 13.20703125 27.04296875 C7.75682562 27.28354621 7.75682562 27.28354621 3.5625 30.5625 C0.53754127 33.43989977 -0.28696181 33.33505203 -4.3125 33.3125 C-5.87642824 33.23259126 -7.43997572 33.1363128 -9 33 C-9 33.99 -9 34.98 -9 36 C-1.47927726 36.08662534 -1.47927726 36.08662534 4.6875 32.4375 C5.450625 31.633125 6.21375 30.82875 7 30 C10.5839564 29.20910704 13.81628828 29.31846901 17.0625 31.1875 C18.38135516 33.73728665 17.7975116 35.31746098 17 38 C18.32 38.33 19.64 38.66 21 39 C20.67 39.99 20.34 40.98 20 42 C18.82630859 41.98259766 18.82630859 41.98259766 17.62890625 41.96484375 C16.61699219 41.95582031 15.60507813 41.94679687 14.5625 41.9375 C13.55316406 41.92589844 12.54382813 41.91429687 11.50390625 41.90234375 C9.05978933 41.71387324 9.05978933 41.71387324 8 43 C5.13732433 43.07325168 2.299281 43.09238205 -0.5625 43.0625 C-1.36880859 43.05798828 -2.17511719 43.05347656 -3.00585938 43.04882812 C-5.00393756 43.03700518 -7.00197783 43.01906914 -9 43 C-9 43.99 -9 44.98 -9 46 C-7.17662109 45.98259766 -7.17662109 45.98259766 -5.31640625 45.96484375 C-3.73177236 45.95546722 -2.14713682 45.94636687 -0.5625 45.9375 C0.23994141 45.92912109 1.04238281 45.92074219 1.86914062 45.91210938 C3.91295221 45.9034857 5.95683902 45.9477185 8 46 C8.495 46.495 8.495 46.495 9 47 C11.33297433 47.04092937 13.66705225 47.04241723 16 47 C16.33 47.99 16.66 48.98 17 50 C18.9254644 52.2236068 18.9254644 52.2236068 22 53 C22.33 53.66 22.66 54.32 23 55 C19.535 55.495 19.535 55.495 16 56 C15.67 56.99 15.34 57.98 15 59 C12.14121082 59.24644734 9.80746043 59.43034065 7 59 C5.5411169 57.76312085 4.08251099 56.52071914 2.71875 55.1796875 C-0.68943664 52.84043212 -4.97960104 53.08739998 -9 53 C-9 53.99 -9 54.98 -9 56 C-8.41992188 55.94199219 -7.83984375 55.88398437 -7.2421875 55.82421875 C-0.87935833 55.45672862 1.09912744 56.81383803 6 61 C8.9966414 61.7021833 11.92793427 61.92490506 15 62 C15.33 62.99 15.66 63.98 16 65 C17.485 65.495 17.485 65.495 19 66 C19 66.66 19 67.32 19 68 C21.00032373 69.00016187 22.83125748 69.49396008 25 70 C25 69.01 25 68.02 25 67 C26.32 67.33 27.64 67.66 29 68 C29 69.32 29 70.64 29 72 C30.98 72 32.96 72 35 72 C33.71034824 73.37562854 32.37310707 74.70766393 31 76 C30.34 76 29.68 76 29 76 C29 75.01 29 74.02 29 73 C25.88667752 73.66868314 25.88667752 73.66868314 24.8125 76.0625 C24.544375 76.701875 24.27625 77.34125 24 78 C23.34 78 22.68 78 22 78 C21.505 79.485 21.505 79.485 21 81 C18.4375 82.1875 18.4375 82.1875 16 83 C15.67 82.01 15.34 81.02 15 80 C14.34 80 13.68 80 13 80 C13 79.34 13 78.68 13 78 C13.99 77.505 13.99 77.505 15 77 C14.34 76.67 13.68 76.34 13 76 C13 75.34 13 74.68 13 74 C11.68 74 10.36 74 9 74 C9.556875 74.86625 9.556875 74.86625 10.125 75.75 C11 78 11 78 10.125 80.25 C9.75375 80.8275 9.3825 81.405 9 82 C10.32 82 11.64 82 13 82 C13.33 83.65 13.66 85.3 14 87 C13.360625 87.268125 12.72125 87.53625 12.0625 87.8125 C9.66868314 88.88667752 9.66868314 88.88667752 9 92 C7.515 91.505 7.515 91.505 6 91 C7 89 7 89 8 88 C8.04063832 86.33382885 8.042721 84.66611905 8 83 C7.34 83.99 6.68 84.98 6 86 C2.18115682 86.42431591 -0.12405448 86.5390434 -3.4375 84.5 C-3.953125 84.005 -4.46875 83.51 -5 83 C-5.99 83.495 -5.99 83.495 -7 84 C-7 81.03 -7 78.06 -7 75 C-8.485 78.465 -8.485 78.465 -10 82 C-10.33 82 -10.66 82 -11 82 C-11 56.92 -11 31.84 -11 6 C-10.01 6 -9.02 6 -8 6 C-8 7.98 -8 9.96 -8 12 C-6.68 12 -5.36 12 -4 12 C-1.77054204 14.69072513 -0.94203424 16.16915749 -1.1875 19.6875 C-2 22 -2 22 -4 24 C-5.32 24 -6.64 24 -8 24 C-8 24.66 -8 25.32 -8 26 C-5.62625139 26.33425735 -5.62625139 26.33425735 -3 26 C-1.29467677 24.05990478 -1.29467677 24.05990478 0 22 C0.66 22 1.32 22 2 22 C2.06058594 21.14535156 2.12117188 20.29070312 2.18359375 19.41015625 C2.26738281 18.30542969 2.35117188 17.20070313 2.4375 16.0625 C2.51871094 14.96035156 2.59992188 13.85820313 2.68359375 12.72265625 C3 10 3 10 4 9 C4.41780879 6.62694422 4.41780879 6.62694422 4 4 C2.10415891 1.68622853 2.10415891 1.68622853 0 0 Z " fill="#09899E" transform="translate(125,68)"/>
<path d="M0 0 C5.32322846 3.92711947 7.85871682 8.29015379 11 14 C11.38414062 14.66257812 11.76828125 15.32515625 12.1640625 16.0078125 C15.27227377 21.67851855 16.63875726 27.71400646 18 34 C18.18949219 34.74121094 18.37898438 35.48242188 18.57421875 36.24609375 C19.22429612 40.45072264 19.14365726 44.6273631 19.125 48.875 C19.13080078 50.18404297 19.13080078 50.18404297 19.13671875 51.51953125 C19.12929903 56.4536442 18.83494166 61.13613352 18 66 C17.67 64.68 17.34 63.36 17 62 C16.34 62 15.68 62 15 62 C13.64613064 60.34997172 12.31321858 58.6825613 11 57 C10.34 56.67 9.68 56.34 9 56 C8.67 55.01 8.34 54.02 8 53 C7.34 53 6.68 53 6 53 C4.4921875 51.5390625 4.4921875 51.5390625 2.875 49.625 C2.33617187 48.99851563 1.79734375 48.37203125 1.2421875 47.7265625 C0 46 0 46 0 44 C-0.99 43.67 -1.98 43.34 -3 43 C-3 42.34 -3 41.68 -3 41 C-4.32 40.67 -5.64 40.34 -7 40 C-7 39.34 -7 38.68 -7 38 C-7.66 38 -8.32 38 -9 38 C-9.2475 37.195625 -9.495 36.39125 -9.75 35.5625 C-10.72238859 32.828919 -10.72238859 32.828919 -13.125 32.1875 C-14.053125 32.0946875 -14.053125 32.0946875 -15 32 C-15 30.35 -15 28.7 -15 27 C-11.62537285 27.54723683 -9.91765 28.0549 -7 30 C-7 28.68 -7 27.36 -7 26 C-7.66 25.67 -8.32 25.34 -9 25 C-8.34 25 -7.68 25 -7 25 C-7.185625 23.88625 -7.37125 22.7725 -7.5625 21.625 C-8 18 -8 18 -7 16 C-7.99 15.67 -8.98 15.34 -10 15 C-9.40703125 14.63261719 -8.8140625 14.26523438 -8.203125 13.88671875 C-5.42223031 11.50520788 -4.31059859 9.11103792 -2.75 5.8125 C-1.96882812 4.18248047 -1.96882812 4.18248047 -1.171875 2.51953125 C-0.78515625 1.68808594 -0.3984375 0.85664062 0 0 Z " fill="#129DB8" transform="translate(167,64)"/>
<path d="M0 0 C5.36513131 0.847126 10.6787385 1.91681831 16 3 C15.34 3.66 14.68 4.32 14 5 C15.32 5 16.64 5 18 5 C18.33 7.97 18.66 10.94 19 14 C20.1446875 14.4021875 20.1446875 14.4021875 21.3125 14.8125 C23.93032534 15.96921352 25.10703497 16.93494724 27 19 C27.99 19.66 28.98 20.32 30 21 C30.495 22.485 30.495 22.485 31 24 C31.99 24.33 32.98 24.66 34 25 C34 25.66 34 26.32 34 27 C35.32 27.33 36.64 27.66 38 28 C37.34 29.32 36.68 30.64 36 32 C18.02630241 32.67521476 4.02202874 30.95085404 -12 22 C-11.34 21.67 -10.68 21.34 -10 21 C-9.67 20.01 -9.34 19.02 -9 18 C-8.01 18 -7.02 18 -6 18 C-6 16.68 -6 15.36 -6 14 C-6.66 14 -7.32 14 -8 14 C-7.34 12.35 -6.68 10.7 -6 9 C-6.66 8.67 -7.32 8.34 -8 8 C-7.34 8 -6.68 8 -6 8 C-6 7.34 -6 6.68 -6 6 C-4.02 5.67 -2.04 5.34 0 5 C0 3.35 0 1.7 0 0 Z " fill="#129CB7" transform="translate(86,154)"/>
<path d="M0 0 C0.625 2.5625 0.625 2.5625 1 5 C1.61875 5.061875 2.2375 5.12375 2.875 5.1875 C5 6 5 6 6.25 8.5625 C6.4975 9.366875 6.745 10.17125 7 11 C7.66 11 8.32 11 9 11 C9 11.66 9 12.32 9 13 C9.66 13 10.32 13 11 13 C11 13.66 11 14.32 11 15 C9.02 15.99 9.02 15.99 7 17 C7.01160156 17.78246094 7.02320313 18.56492187 7.03515625 19.37109375 C7.04417969 20.38300781 7.05320313 21.39492187 7.0625 22.4375 C7.07410156 23.44683594 7.08570313 24.45617187 7.09765625 25.49609375 C7 28 7 28 6 29 C4.00041636 29.04080783 1.99954746 29.04254356 0 29 C0.66 30.32 1.32 31.64 2 33 C1.34 33.66 0.68 34.32 0 35 C0 36.32 0 37.64 0 39 C-1.625 41.3125 -1.625 41.3125 -4 43 C-7.1875 42.875 -7.1875 42.875 -10 42 C-10.33 41.34 -10.66 40.68 -11 40 C-12.92954332 39.72210436 -12.92954332 39.72210436 -15.1875 39.6875 C-20.18543307 39.27034968 -22.16482577 37.19597852 -26 34 C-28.99735425 33.30259579 -31.92819503 33.07508857 -35 33 C-35 32.01 -35 31.02 -35 30 C-26.20724346 29.21803549 -26.20724346 29.21803549 -23.28125 31.11328125 C-22.8171875 31.57089844 -22.353125 32.02851562 -21.875 32.5 C-18.9356598 35.055948 -18.44532294 35.39450968 -14.8125 35.5 C-11.13255882 35.32858894 -11.13255882 35.32858894 -9.125 33.625 C-8.75375 33.08875 -8.3825 32.5525 -8 32 C-7.34 31.34 -6.68 30.68 -6 30 C-7.65 29.34 -9.3 28.68 -11 28 C-11 27.01 -11 26.02 -11 25 C-11.969375 25.020625 -12.93875 25.04125 -13.9375 25.0625 C-17 25 -17 25 -18 24 C-20.85877909 23.76298761 -23.69883297 23.57780818 -26.5625 23.4375 C-27.36880859 23.39431641 -28.17511719 23.35113281 -29.00585938 23.30664062 C-31.00368805 23.20024738 -33.0018207 23.09959112 -35 23 C-35 22.01 -35 21.02 -35 20 C-33.17662109 19.90912109 -33.17662109 19.90912109 -31.31640625 19.81640625 C-29.73175772 19.73201668 -28.14712298 19.6473679 -26.5625 19.5625 C-25.35883789 19.50352539 -25.35883789 19.50352539 -24.13085938 19.44335938 C-20.24760439 19.5945704 -20.24760439 19.5945704 -17 18 C-15.14712498 17.92773498 -13.29166122 17.9161878 -11.4375 17.9375 C-10.42558594 17.94652344 -9.41367188 17.95554687 -8.37109375 17.96484375 C-7.19740234 17.98224609 -7.19740234 17.98224609 -6 18 C-5.67 17.34 -5.34 16.68 -5 16 C-6.32 15.67 -7.64 15.34 -9 15 C-8.95875 14.21625 -8.9175 13.4325 -8.875 12.625 C-8.71271266 9.83883881 -8.71271266 9.83883881 -11 8 C-13.99643208 7.65614714 -16.10519445 7.41764654 -19 8 C-19.763125 8.825 -20.52625 9.65 -21.3125 10.5 C-24.5356283 13.49825889 -25.54503445 13.33971598 -29.8125 13.3125 C-31.54295278 13.23249228 -33.27305325 13.13609913 -35 13 C-35 12.01 -35 11.02 -35 10 C-34.33613281 9.98582031 -33.67226562 9.97164062 -32.98828125 9.95703125 C-26.58485616 9.61115281 -24.52717624 8.64325768 -20 4 C-17.66233799 3.52496708 -15.4691282 3.37660628 -13.0859375 3.3359375 C-10.46772275 2.91427745 -9.7702948 1.90196962 -8 0 C-2.63013699 -1.31506849 -2.63013699 -1.31506849 0 0 Z " fill="#098C9E" transform="translate(151,91)"/>
<path d="M0 0 C2.29834986 1.12244993 4.18477881 2.18477881 6 4 C7.51469448 4.23192865 9.03754562 4.41215238 10.5625 4.5625 C11.38878906 4.64628906 12.21507812 4.73007813 13.06640625 4.81640625 C13.70449219 4.87699219 14.34257812 4.93757812 15 5 C15.33 5.99 15.66 6.98 16 8 C16.99 8.33 17.98 8.66 19 9 C19 9.66 19 10.32 19 11 C21.00032373 12.00016187 22.83125748 12.49396008 25 13 C25 12.01 25 11.02 25 10 C26.32 10.33 27.64 10.66 29 11 C29 12.32 29 13.64 29 15 C30.98 15 32.96 15 35 15 C33.71034824 16.37562854 32.37310707 17.70766393 31 19 C30.34 19 29.68 19 29 19 C29 18.01 29 17.02 29 16 C25.88667752 16.66868314 25.88667752 16.66868314 24.8125 19.0625 C24.544375 19.701875 24.27625 20.34125 24 21 C23.34 21 22.68 21 22 21 C21.67 21.99 21.34 22.98 21 24 C18.4375 25.1875 18.4375 25.1875 16 26 C15.67 25.01 15.34 24.02 15 23 C14.34 23 13.68 23 13 23 C13 22.34 13 21.68 13 21 C13.66 20.67 14.32 20.34 15 20 C14.34 19.67 13.68 19.34 13 19 C13 18.34 13 17.68 13 17 C11.68 17 10.36 17 9 17 C9.556875 17.86625 9.556875 17.86625 10.125 18.75 C11 21 11 21 10.125 23.25 C9.75375 23.8275 9.3825 24.405 9 25 C10.32 25 11.64 25 13 25 C13.33 26.65 13.66 28.3 14 30 C13.360625 30.268125 12.72125 30.53625 12.0625 30.8125 C9.66868314 31.88667752 9.66868314 31.88667752 9 35 C8.01 34.67 7.02 34.34 6 34 C7 32 7 32 8 31 C7.91062197 29.47480724 7.75462854 27.95318071 7.5625 26.4375 C7.46066406 25.61121094 7.35882813 24.78492188 7.25390625 23.93359375 C7.17011719 23.29550781 7.08632812 22.65742188 7 22 C6.34 22 5.68 22 5 22 C3.07370645 18.1474129 3.23700767 13.30549083 2.83789062 9.03320312 C2.62579066 7.01394245 2.31988209 5.0050126 2 3 C1.34 2.67 0.68 2.34 0 2 C0.33 2.99 0.66 3.98 1 5 C0.01 5 -0.98 5 -2 5 C-2 4.34 -2 3.68 -2 3 C-2.66 2.67 -3.32 2.34 -4 2 C-2.3125 0.8125 -2.3125 0.8125 0 0 Z " fill="#0C8AA4" transform="translate(125,125)"/>
<path d="M0 0 C2.25 0 2.25 0 5 1 C6.26972878 2.99713273 7.19026384 5.00658616 8.10546875 7.1875 C8.86362971 9.18354008 8.86362971 9.18354008 11 10 C11.33 11.32 11.66 12.64 12 14 C14.31 11.36 16.62 8.72 19 6 C20.98 6.66 22.96 7.32 25 8 C22.38058783 9.74627478 20.96175123 10.38722388 18 11 C17.67 12.65 17.34 14.3 17 16 C17.99 16.33 18.98 16.66 20 17 C20 18.65 20 20.3 20 22 C20.66 22.33 21.32 22.66 22 23 C20.02 23.33 18.04 23.66 16 24 C15.67 24.99 15.34 25.98 15 27 C14.40832031 27.01417969 13.81664062 27.02835938 13.20703125 27.04296875 C7.74304394 27.29830937 7.74304394 27.29830937 3.5 30.5625 C0.62569457 33.36494779 0.0198269 33.33634029 -3.8125 33.3125 C-5.194375 33.209375 -6.57625 33.10625 -8 33 C-8.33 29.37 -8.66 25.74 -9 22 C-7.02 22 -5.04 22 -3 22 C-3.33 22.66 -3.66 23.32 -4 24 C-5.32 24 -6.64 24 -8 24 C-8 24.66 -8 25.32 -8 26 C-5.62625139 26.33425735 -5.62625139 26.33425735 -3 26 C-1.29467677 24.05990478 -1.29467677 24.05990478 0 22 C0.66 22 1.32 22 2 22 C2.06058594 21.14535156 2.12117188 20.29070312 2.18359375 19.41015625 C2.26738281 18.30542969 2.35117188 17.20070313 2.4375 16.0625 C2.51871094 14.96035156 2.59992188 13.85820313 2.68359375 12.72265625 C3 10 3 10 4 9 C4.41780879 6.62694422 4.41780879 6.62694422 4 4 C2.10415891 1.68622853 2.10415891 1.68622853 0 0 Z " fill="#1A8CA3" transform="translate(125,68)"/>
<path d="M0 0 C0 0.66 0 1.32 0 2 C-0.99 2.495 -0.99 2.495 -2 3 C-2.33 3.99 -2.66 4.98 -3 6 C-1.68 6.33 -0.36 6.66 1 7 C1.33 5.68 1.66 4.36 2 3 C2.99 3.33 3.98 3.66 5 4 C6.75048708 3.9944252 8.50103857 3.94828051 10.25 3.875 C15.33355315 3.80748933 18.54080054 4.62176029 23 7 C23.33 6.01 23.66 5.02 24 4 C26.475 4.99 26.475 4.99 29 6 C28.67 8.31 28.34 10.62 28 13 C28.99 13 29.98 13 31 13 C31.309375 12.195625 31.61875 11.39125 31.9375 10.5625 C33 8 33 8 34 7 C36.5 6.875 36.5 6.875 39 7 C40 8 40 8 40.125 10.5 C40 13 40 13 39 14 C38.79160985 15.64107242 38.63248275 17.28856293 38.5 18.9375 C38.10977702 23.78044597 38.10977702 23.78044597 37 26 C36.34 26 35.68 26 35 26 C34.71125 26.639375 34.4225 27.27875 34.125 27.9375 C33 30 33 30 31 31 C28.875 30.5625 28.875 30.5625 27 30 C27 29.34 27 28.68 27 28 C28.2065625 27.6596875 28.2065625 27.6596875 29.4375 27.3125 C32.22758446 26.24642852 32.22758446 26.24642852 32.9375 23.5 C32.958125 22.675 32.97875 21.85 33 21 C32.34 20.34 31.68 19.68 31 19 C31 18.01 31 17.02 31 16 C29.68 16 28.36 16 27 16 C27 14.02 27 12.04 27 10 C26.01 10 25.02 10 24 10 C23.67 10.66 23.34 11.32 23 12 C22.236875 11.195625 21.47375 10.39125 20.6875 9.5625 C17.52718519 6.54917658 15.99499269 6.07509379 11.6875 5.75 C7.56995976 6.02915527 5.4245939 6.7169374 2 9 C-1.52657136 13.19376054 -2.56577288 16.57216103 -3 22 C-3.33 20.68 -3.66 19.36 -4 18 C-4.94875 18.78375 -5.8975 19.5675 -6.875 20.375 C-7.40867187 20.81585938 -7.94234375 21.25671875 -8.4921875 21.7109375 C-9.71051161 22.75250992 -10.86660097 23.86660097 -12 25 C-12.33 23.68 -12.66 22.36 -13 21 C-12.34 21 -11.68 21 -11 21 C-11 20.34 -11 19.68 -11 19 C-11.66 19 -12.32 19 -13 19 C-13 18.34 -13 17.68 -13 17 C-12.01 17 -11.02 17 -10 17 C-9.67 17.66 -9.34 18.32 -9 19 C-8.34 18.34 -7.68 17.68 -7 17 C-7.99 16.67 -8.98 16.34 -10 16 C-8.79618552 13.50638429 -7.54571278 11.31856917 -6 9 C-6.20625 8.195625 -6.4125 7.39125 -6.625 6.5625 C-6.74875 5.716875 -6.8725 4.87125 -7 4 C-4.69139139 0.94933862 -3.89789797 0 0 0 Z " fill="#239BB5" transform="translate(90,64)"/>
<path d="M0 0 C2.89931291 -0.41418756 5.08967441 -0.50852671 7.69921875 0.94921875 C11.42418823 4.09695325 12.39424032 6.72637249 12.8125 11.5625 C12.83957031 12.47128906 12.86664063 13.38007813 12.89453125 14.31640625 C12.91604532 17.02860709 12.91604532 17.02860709 13.63671875 19.71484375 C13.75660156 20.46894531 13.87648437 21.22304687 14 22 C13.34 22.66 12.68 23.32 12 24 C8.55834679 23.64700993 6.93127462 22.95418308 4 21 C3.34 21.33 2.68 21.66 2 22 C2 19.03 2 16.06 2 13 C1.01 14.32 0.02 15.64 -1 17 C-1 13.37 -1 9.74 -1 6 C0.65 6 2.3 6 4 6 C4 5.34 4 4.68 4 4 C2.68 4 1.36 4 0 4 C0 2.68 0 1.36 0 0 Z " fill="#0A8CA2" transform="translate(116,130)"/>
<path d="M0 0 C0.33 0 0.66 0 1 0 C1.33 3.63 1.66 7.26 2 11 C4.97 11 7.94 11 11 11 C11 11.66 11 12.32 11 13 C10.34 13.66 9.68 14.32 9 15 C9.66 15.66 10.32 16.32 11 17 C11 16.01 11 15.02 11 14 C11.99 14.33 12.98 14.66 14 15 C14.66 21.27 15.32 27.54 16 34 C16.66 34 17.32 34 18 34 C18 35.98 18 37.96 18 40 C16.02 40.495 16.02 40.495 14 41 C14.185625 40.030625 14.37125 39.06125 14.5625 38.0625 C14.706875 37.051875 14.85125 36.04125 15 35 C14.67 34.67 14.34 34.34 14 34 C13.89436805 32.25120432 13.81553635 30.50075682 13.75 28.75 C13.41227697 24.74928102 13.17203176 23.24575966 10.8125 19.875 C7.7608396 17.84055973 5.63299208 17.25346456 2 17 C2 18.32 2 19.64 2 21 C3.32 21 4.64 21 6 21 C6 21.66 6 22.32 6 23 C4.35 23 2.7 23 1 23 C1 27.62 1 32.24 1 37 C0.67 37 0.34 37 0 37 C0 24.79 0 12.58 0 0 Z " fill="#0F8197" transform="translate(114,113)"/>
<path d="M0 0 C-1.32 1.32 -2.64 2.64 -4 4 C-4 3.01 -4 2.02 -4 1 C-4.99 1 -5.98 1 -7 1 C-7 1.66 -7 2.32 -7 3 C-6.34 3 -5.68 3 -5 3 C-5 3.66 -5 4.32 -5 5 C-5.66 5 -6.32 5 -7 5 C-6.34 5.66 -5.68 6.32 -5 7 C-3.824375 5.7625 -3.824375 5.7625 -2.625 4.5 C0 2 0 2 2 2 C2 3.32 2 4.64 2 6 C2.53625 6.268125 3.0725 6.53625 3.625 6.8125 C5.40850856 7.70425428 7.17703198 8.62608084 8.9375 9.5625 C11.70343312 10.86079514 13.99681937 11.55835579 17 12 C17 12.66 17 13.32 17 14 C10.25 14.125 10.25 14.125 8 13 C8 15.97 8 18.94 8 22 C7.34 22 6.68 22 6 22 C5.87882812 21.33613281 5.75765625 20.67226562 5.6328125 19.98828125 C4.77452292 15.46575541 3.96028689 11.20061476 2 7 C-2.17882671 9.56428003 -5.12505529 12.01930733 -8 16 C-8.93423645 12.98968256 -9.04449911 12.13349732 -8 9 C-9.32 8.67 -10.64 8.34 -12 8 C-11.67 7.01 -11.34 6.02 -11 5 C-10.34 5 -9.68 5 -9 5 C-8.87625 4.195625 -8.7525 3.39125 -8.625 2.5625 C-8.41875 1.716875 -8.2125 0.87125 -8 0 C-5.13822943 -1.43088528 -3.06624227 -0.59991697 0 0 Z " fill="#2499B1" transform="translate(84,80)"/>
<path d="M0 0 C2.3125 1.875 2.3125 1.875 4 4 C4.66 4.66 5.32 5.32 6 6 C5.76903442 10.38834604 4.11159909 12.08287585 1 15 C0.67 15.99 0.34 16.98 0 18 C-1.32 17.67 -2.64 17.34 -4 17 C-4.12375 16.195625 -4.2475 15.39125 -4.375 14.5625 C-4.58125 13.716875 -4.7875 12.87125 -5 12 C-5.66 11.67 -6.32 11.34 -7 11 C-7 9.35 -7 7.7 -7 6 C-4.69 5.01 -2.38 4.02 0 3 C-2.239835 2.04979584 -2.239835 2.04979584 -5 2 C-8.39785398 4.54839048 -9.79461088 6.16264437 -10.8125 10.3125 C-10.874375 11.199375 -10.93625 12.08625 -11 13 C-11.33 13 -11.66 13 -12 13 C-12.60356653 5.87791495 -12.60356653 5.87791495 -9.9375 2 C-6.25623347 -0.50639423 -4.37098953 -0.71525283 0 0 Z " fill="#21A4BB" transform="translate(149,73)"/>
<path d="M0 0 C1.65 1.65 3.3 3.3 5 5 C5.33 3.68 5.66 2.36 6 1 C6.2475 2.216875 6.495 3.43375 6.75 4.6875 C7.74294409 8.61067069 9.04581596 11.13022122 12 14 C14.61818456 15.33298974 14.61818456 15.33298974 17 16 C17 16.33 17 16.66 17 17 C12.53160785 17.21278058 9.17737474 16.59138085 5 15 C5 15.66 5 16.32 5 17 C4.34 17 3.68 17 3 17 C3 17.66 3 18.32 3 19 C2.34 19 1.68 19 1 19 C1 18.34 1 17.68 1 17 C0.01 16.67 -0.98 16.34 -2 16 C-2.24979445 14.08591243 -2.47408014 12.16848389 -2.6875 10.25 C-2.81511719 9.18265625 -2.94273438 8.1153125 -3.07421875 7.015625 C-2.99001814 3.59442134 -2.30925485 2.44579177 0 0 Z " fill="#169DB0" transform="translate(81,139)"/>
<path d="M0 0 C2.5625 0.0625 2.5625 0.0625 5 1 C6.3125 3.0625 6.3125 3.0625 7 5 C5.02 4.67 3.04 4.34 1 4 C1 4.99 1 5.98 1 7 C1.99 7.33 2.98 7.66 4 8 C3.67 8.99 3.34 9.98 3 11 C0.13275314 10.42655063 -0.8614515 10.1385485 -3 8 C-5.99643208 7.65614714 -8.10519445 7.41764654 -11 8 C-11.763125 8.825 -12.52625 9.65 -13.3125 10.5 C-16.5356283 13.49825889 -17.54503445 13.33971598 -21.8125 13.3125 C-23.54295278 13.23249228 -25.27305325 13.13609913 -27 13 C-27 12.01 -27 11.02 -27 10 C-26.33613281 9.98582031 -25.67226562 9.97164062 -24.98828125 9.95703125 C-18.58485616 9.61115281 -16.52717624 8.64325768 -12 4 C-9.66233799 3.52496708 -7.4691282 3.37660628 -5.0859375 3.3359375 C-2.47867816 2.9160418 -1.76981479 1.87949346 0 0 Z " fill="#E2F3F7" transform="translate(143,91)"/>
<path d="M0 0 C6.39075249 -0.36174071 6.39075249 -0.36174071 9 1.1875 C10 3 10 3 9.6875 5.6875 C9.460625 6.450625 9.23375 7.21375 9 8 C10.32 8.33 11.64 8.66 13 9 C12.67 9.99 12.34 10.98 12 12 C10.33388095 12.042721 8.66617115 12.04063832 7 12 C6.67 11.67 6.34 11.34 6 11 C3.67182036 10.63239269 1.3381615 10.29758419 -1 10 C-1.33 10.66 -1.66 11.32 -2 12 C-2.185625 11.071875 -2.185625 11.071875 -2.375 10.125 C-2.87197356 7.80879168 -2.87197356 7.80879168 -5 6 C-4.360625 5.38125 -3.72125 4.7625 -3.0625 4.125 C-0.96116416 2.17402388 -0.96116416 2.17402388 0 0 Z " fill="#0A8CA3" transform="translate(133,98)"/>
<path d="M0 0 C8.79275654 -0.78196451 8.79275654 -0.78196451 11.71875 1.11328125 C12.1828125 1.57089844 12.646875 2.02851562 13.125 2.5 C16.10793926 5.09386022 16.51510153 5.36167006 20.1875 5.375 C23.9187969 5.15031442 23.9187969 5.15031442 27 4 C27 5.98 27 7.96 27 10 C28.94999129 9.80528889 28.94999129 9.80528889 31 9 C32.28436734 7.0162233 32.28436734 7.0162233 33 5 C33.66 5.33 34.32 5.66 35 6 C34.6875 8.375 34.6875 8.375 34 11 C31 13 31 13 27.875 12.75 C26.451875 12.37875 26.451875 12.37875 25 12 C24.67 11.34 24.34 10.68 24 10 C22.07045668 9.72210436 22.07045668 9.72210436 19.8125 9.6875 C14.81456693 9.27034968 12.83517423 7.19597852 9 4 C6.00264575 3.30259579 3.07180497 3.07508857 0 3 C0 2.01 0 1.02 0 0 Z " fill="#CDEBF1" transform="translate(116,121)"/>
<path d="M0 0 C1.98 0 3.96 0 6 0 C5.67 0.66 5.34 1.32 5 2 C3.68 2 2.36 2 1 2 C1 2.66 1 3.32 1 4 C3.37429296 4.25069913 3.37429296 4.25069913 6 4 C6.45375 3.484375 6.9075 2.96875 7.375 2.4375 C7.91125 1.963125 8.4475 1.48875 9 1 C12.6875 1.3125 12.6875 1.3125 16 2 C16.33 2.99 16.66 3.98 17 5 C11.70044843 10.72556054 11.70044843 10.72556054 7.53125 11.3984375 C5.35021762 11.3777315 3.17189724 11.20048282 1 11 C0.67 7.37 0.34 3.74 0 0 Z " fill="#18899B" transform="translate(116,90)"/>
<path d="M0 0 C2.89931291 -0.41418756 5.08967441 -0.50852671 7.69921875 0.94921875 C11.42418823 4.09695325 12.39424032 6.72637249 12.8125 11.5625 C12.83957031 12.47128906 12.86664063 13.38007813 12.89453125 14.31640625 C12.91604532 17.02860709 12.91604532 17.02860709 13.63671875 19.71484375 C13.75660156 20.46894531 13.87648437 21.22304687 14 22 C13.34 22.66 12.68 23.32 12 24 C9.375 23.625 9.375 23.625 7 23 C5.875 19.25 5.875 19.25 7 17 C7.66 17 8.32 17 9 17 C8.67137903 11.05593113 8.67137903 11.05593113 6.75 5.5 C4.56126519 3.62394159 2.83336529 3.30630976 0 3 C0 2.01 0 1.02 0 0 Z " fill="#DEEEF5" transform="translate(116,130)"/>
<path d="M0 0 C1.32 0.33 2.64 0.66 4 1 C4 2.32 4 3.64 4 5 C5.98 5 7.96 5 10 5 C8.71034824 6.37562854 7.37310707 7.70766393 6 9 C5.34 9 4.68 9 4 9 C4 8.01 4 7.02 4 6 C0.88667752 6.66868314 0.88667752 6.66868314 -0.1875 9.0625 C-0.455625 9.701875 -0.72375 10.34125 -1 11 C-1.66 11 -2.32 11 -3 11 C-3.33 11.99 -3.66 12.98 -4 14 C-6.5625 15.1875 -6.5625 15.1875 -9 16 C-9.33 15.01 -9.66 14.02 -10 13 C-10.66 13 -11.32 13 -12 13 C-12 12.34 -12 11.68 -12 11 C-10.35 10.34 -8.7 9.68 -7 9 C-6.34 9.66 -5.68 10.32 -5 11 C-5 8.57202689 -5.50085685 6.37092995 -6 4 C-3.92446352 3.4465236 -2.15634036 3 0 3 C0 2.01 0 1.02 0 0 Z " fill="#279AAD" transform="translate(150,135)"/>
<path d="M0 0 C1.52427612 -0.00229614 1.52427612 -0.00229614 3.0793457 -0.00463867 C10.40864985 0.10576657 10.40864985 0.10576657 13.8125 2.375 C4.5725 2.705 -4.6675 3.035 -14.1875 3.375 C-14.8475 4.695 -15.5075 6.015 -16.1875 7.375 C-20.8075 7.375 -25.4275 7.375 -30.1875 7.375 C-21.13853918 0.58827939 -10.94922054 0.00938822 0 0 Z " fill="#339EB4" transform="translate(112.1875,38.625)"/>
<path d="M0 0 C2.5 0.125 2.5 0.125 3.5 1.125 C3.625 3.625 3.625 3.625 3.5 6.125 C3.17 6.455 2.84 6.785 2.5 7.125 C2.29160985 8.76607242 2.13248275 10.41356293 2 12.0625 C1.60977702 16.90544597 1.60977702 16.90544597 0.5 19.125 C-0.16 19.125 -0.82 19.125 -1.5 19.125 C-1.78875 19.764375 -2.0775 20.40375 -2.375 21.0625 C-3.5 23.125 -3.5 23.125 -5.5 24.125 C-7.625 23.6875 -7.625 23.6875 -9.5 23.125 C-9.5 22.465 -9.5 21.805 -9.5 21.125 C-8.71625 20.83625 -7.9325 20.5475 -7.125 20.25 C-4.40328368 19.27587746 -4.40328368 19.27587746 -2.5 17.125 C-2.18100485 14.75544614 -2.18100485 14.75544614 -2.25 12.125 C-2.24484375 11.238125 -2.2396875 10.35125 -2.234375 9.4375 C-2.27947138 6.93099761 -2.27947138 6.93099761 -4.5 5.125 C-3.7519084 0.18759542 -3.7519084 0.18759542 0 0 Z " fill="#E5F7FC" transform="translate(126.5,70.875)"/>
<path d="M0 0 C1.4540625 0.0309375 1.4540625 0.0309375 2.9375 0.0625 C4.0625 4.8125 4.0625 4.8125 2.9375 7.0625 C0.93795254 7.10504356 -1.06291636 7.10330783 -3.0625 7.0625 C-3.3925 6.7325 -3.7225 6.4025 -4.0625 6.0625 C-6.92127909 5.82548761 -9.76133297 5.64030818 -12.625 5.5 C-13.43130859 5.45681641 -14.23761719 5.41363281 -15.06835938 5.36914062 C-17.06618805 5.26274738 -19.0643207 5.16209112 -21.0625 5.0625 C-21.0625 4.0725 -21.0625 3.0825 -21.0625 2.0625 C-19.23912109 1.97162109 -19.23912109 1.97162109 -17.37890625 1.87890625 C-15.79425772 1.79451668 -14.20962298 1.7098679 -12.625 1.625 C-11.82255859 1.58568359 -11.02011719 1.54636719 -10.19335938 1.50585938 C-6.44024161 1.29999216 -3.49683544 0.07136399 0 0 Z " fill="#E3F1EF" transform="translate(137.0625,108.9375)"/>
<path d="M0 0 C2.25 0 2.25 0 5 1 C6.26972878 2.99713273 7.19026384 5.00658616 8.10546875 7.1875 C8.86362971 9.18354008 8.86362971 9.18354008 11 10 C11.59355614 12.64860427 11.74209269 15.29197322 12 18 C9.03 18.66 6.06 19.32 3 20 C2.97311849 18.35425434 2.95365877 16.70838587 2.9375 15.0625 C2.92589844 14.14597656 2.91429688 13.22945312 2.90234375 12.28515625 C3 10 3 10 4 9 C4.41780879 6.62694422 4.41780879 6.62694422 4 4 C2.10415891 1.68622853 2.10415891 1.68622853 0 0 Z " fill="#09889C" transform="translate(125,68)"/>
<path d="M0 0 C1.32 0.66 2.64 1.32 4 2 C3.34 2 2.68 2 2 2 C1.83318891 4.91652174 1.83318891 4.91652174 2 8 C2.66 8.66 3.32 9.32 4 10 C4.125 12.625 4.125 12.625 4 15 C3.34 15 2.68 15 2 15 C2.33 16.32 2.66 17.64 3 19 C-3.85546039 12.32494647 -3.85546039 12.32494647 -4.375 7.5625 C-4 4 -4 4 -2 1.5625 C-1.34 1.046875 -0.68 0.53125 0 0 Z " fill="#EDF3F7" transform="translate(91,135)"/>
<path d="M0 0 C2.64 0.33 5.28 0.66 8 1 C8 1.99 8 2.98 8 4 C9.299375 3.79375 10.59875 3.5875 11.9375 3.375 C16.12720719 2.90731176 19.27991342 3.38823919 23.31640625 4.453125 C29.10250631 5.63224292 35.11373075 5.70529877 41 6 C41 6.33 41 6.66 41 7 C24.29157175 7.3690205 24.29157175 7.3690205 16 5 C15.67 5.99 15.34 6.98 15 8 C11.14521782 8.35858439 9.42240542 8.2754818 6.125 6.125 C5.42375 5.42375 4.7225 4.7225 4 4 C4 3.34 4 2.68 4 2 C2.68 1.67 1.36 1.34 0 1 C0 0.67 0 0.34 0 0 Z " fill="#F9F1FA" transform="translate(75,180)"/>
<path d="M0 0 C0.66 0 1.32 0 2 0 C2 0.66 2 1.32 2 2 C1.01 2.66 0.02 3.32 -1 4 C-1.72382467 6.05925139 -1.72382467 6.05925139 -2 8 C-1.34 8 -0.68 8 0 8 C0.66 6.68 1.32 5.36 2 4 C2.6875 5.6875 2.6875 5.6875 3 8 C2.02616054 9.68208635 1.02304948 11.34738161 0 13 C-0.71401232 16.19395026 -0.71401232 16.19395026 -1 19 C-3.5 17.4375 -3.5 17.4375 -6 15 C-6.73247245 10.60516529 -6.32515971 8.57444883 -4.125 4.6875 C-2 2 -2 2 0 0 Z " fill="#FAF6F5" transform="translate(93,71)"/>
<path d="M0 0 C0.99 0.33 1.98 0.66 3 1 C2.7834375 2.2684375 2.7834375 2.2684375 2.5625 3.5625 C1.9941203 7.03593149 1.48797607 10.51445662 1 14 C0.67 12.68 0.34 11.36 0 10 C-0.94875 10.78375 -1.8975 11.5675 -2.875 12.375 C-3.40867187 12.81585938 -3.94234375 13.25671875 -4.4921875 13.7109375 C-5.71051161 14.75250992 -6.86660097 15.86660097 -8 17 C-8.33 15.68 -8.66 14.36 -9 13 C-8.34 13 -7.68 13 -7 13 C-7 12.34 -7 11.68 -7 11 C-7.66 11 -8.32 11 -9 11 C-9 10.34 -9 9.68 -9 9 C-8.01 9 -7.02 9 -6 9 C-5.67 9.66 -5.34 10.32 -5 11 C-4.34 10.34 -3.68 9.68 -3 9 C-3.99 8.67 -4.98 8.34 -6 8 C-4.95125002 5.37812506 -4.35068687 4.20628639 -1.875 2.75 C-1.25625 2.5025 -0.6375 2.255 0 2 C0 1.34 0 0.68 0 0 Z " fill="#3BAEC9" transform="translate(86,72)"/>
<path d="M0 0 C-0.928125 0.680625 -0.928125 0.680625 -1.875 1.375 C-4.05919833 2.97108919 -4.05919833 2.97108919 -6 5 C-6.33 5.33 -6.66 5.66 -7 6 C-6.71325582 8.00720923 -6.38133299 10.0085944 -6 12 C-4.02 12.66 -2.04 13.32 0 14 C0 14.66 0 15.32 0 16 C0.99 16 1.98 16 3 16 C2.67 16.66 2.34 17.32 2 18 C0.35369672 17.85957123 -1.29204179 17.71250671 -2.9375 17.5625 C-4.31228516 17.44068359 -4.31228516 17.44068359 -5.71484375 17.31640625 C-8 17 -8 17 -9 16 C-9.93119789 10.9301448 -10.08997924 6.12881696 -10 1 C-6.78548731 -0.60725635 -3.56387464 -0.05748185 0 0 Z " fill="#2290A8" transform="translate(124,104)"/>
<path d="M0 0 C2.6429866 0.98168074 4.9856661 1.99094701 7.375 3.5 C10.48238445 5.27564826 13.54363613 6.11896607 17 7 C17 7.66 17 8.32 17 9 C10.25 9.125 10.25 9.125 8 8 C8 10.97 8 13.94 8 17 C7.34 17 6.68 17 6 17 C5.87882812 16.33613281 5.75765625 15.67226562 5.6328125 14.98828125 C4.77452292 10.46575541 3.96028689 6.20061476 2 2 C1.34 2 0.68 2 0 2 C0 1.34 0 0.68 0 0 Z " fill="#1F8691" transform="translate(84,85)"/>
<path d="M0 0 C1.24546405 2.49092811 0.7767578 3.41080733 0 6 C0.99 6 1.98 6 3 6 C3.66 7.65 4.32 9.3 5 11 C-0.75 10.25 -0.75 10.25 -3 8 C-3.33 9.32 -3.66 10.64 -4 12 C-4.66 12 -5.32 12 -6 12 C-5.95875 12.928125 -5.9175 13.85625 -5.875 14.8125 C-6 18 -6 18 -8 21 C-8.66 21 -9.32 21 -10 21 C-8.56879457 13.4146112 -5.5446428 5.5446428 0 0 Z " fill="#1E9BB2" transform="translate(53,69)"/>
<path d="M0 0 C1.65 1.65 3.3 3.3 5 5 C5.33 3.68 5.66 2.36 6 1 C6.66 3.97 7.32 6.94 8 10 C3.25 13 3.25 13 1 13 C1 12.01 1 11.02 1 10 C1.66 10 2.32 10 3 10 C2.67 9.34 2.34 8.68 2 8 C-0.52733235 7.34444881 -0.52733235 7.34444881 -3 7 C-2.38722388 4.03824877 -1.74627478 2.61941217 0 0 Z " fill="#46AFC4" transform="translate(81,139)"/>
<path d="M0 0 C0 1.98 0 3.96 0 6 C1.94999129 5.80528889 1.94999129 5.80528889 4 5 C5.28436734 3.0162233 5.28436734 3.0162233 6 1 C6.66 1.33 7.32 1.66 8 2 C7.6875 4.375 7.6875 4.375 7 7 C4 9 4 9 0.875 8.75 C-0.548125 8.37875 -0.548125 8.37875 -2 8 C-2.33 7.34 -2.66 6.68 -3 6 C-5.3140622 5.26924352 -7.64828869 4.59861742 -10 4 C-10 3.67 -10 3.34 -10 3 C-7.69 3 -5.38 3 -3 3 C-3 2.34 -3 1.68 -3 1 C-1 0 -1 0 0 0 Z " fill="#D3EEF7" transform="translate(143,125)"/>
<path d="M0 0 C2.22574335 0.22451458 4.45581519 0.40782878 6.6875 0.5625 C7.86699219 0.64628906 9.04648438 0.73007812 10.26171875 0.81640625 C11.61716797 0.90728516 11.61716797 0.90728516 13 1 C12.67 1.66 12.34 2.32 12 3 C11.21351074 2.99476318 10.42702148 2.98952637 9.61669922 2.98413086 C6.03614101 2.9632799 2.45559562 2.95031399 -1.125 2.9375 C-2.98125 2.92493164 -2.98125 2.92493164 -4.875 2.91210938 C-6.07382813 2.90888672 -7.27265625 2.90566406 -8.5078125 2.90234375 C-9.60754395 2.89710693 -10.70727539 2.89187012 -11.84033203 2.88647461 C-14.97618105 2.9991442 -17.92059383 3.41373624 -21 4 C-19.68724357 1.37448713 -18.6756418 1.30493495 -15.9375 0.375 C-10.45324314 -1.35687059 -5.55438221 -1.85146074 0 0 Z " fill="#DEF6F3" transform="translate(115,37)"/>
<path d="M0 0 C0 1.32 0 2.64 0 4 C1.32 3.67 2.64 3.34 4 3 C3.1875 4.9375 3.1875 4.9375 2 7 C1.01 7.33 0.02 7.66 -1 8 C-0.67 9.32 -0.34 10.64 0 12 C-5.78461538 7.56923077 -5.78461538 7.56923077 -6.875 4.6875 C-6.91625 4.130625 -6.9575 3.57375 -7 3 C-2.25 0 -2.25 0 0 0 Z " fill="#EDF7F3" transform="translate(170,54)"/>
<path d="M0 0 C0.66 0.99 1.32 1.98 2 3 C3.9254644 5.2236068 3.9254644 5.2236068 7 6 C7.33 6.66 7.66 7.32 8 8 C5.69 8.33 3.38 8.66 1 9 C0.67 9.99 0.34 10.98 0 12 C-1.27875 12.061875 -2.5575 12.12375 -3.875 12.1875 C-4.59429687 12.22230469 -5.31359375 12.25710937 -6.0546875 12.29296875 C-6.69664062 12.19628906 -7.33859375 12.09960938 -8 12 C-8.66 11.01 -9.32 10.02 -10 9 C-7.36 9.66 -4.72 10.32 -2 11 C-2.02320313 10.37351562 -2.04640625 9.74703125 -2.0703125 9.1015625 C-2.09738281 7.87566406 -2.09738281 7.87566406 -2.125 6.625 C-2.14820313 5.81289062 -2.17140625 5.00078125 -2.1953125 4.1640625 C-2 2 -2 2 0 0 Z " fill="#148394" transform="translate(140,115)"/>
<path d="M0 0 C-0.33 0.99 -0.66 1.98 -1 3 C-4.96 3 -8.92 3 -13 3 C-13 2.01 -13 1.02 -13 0 C-13.66 -0.33 -14.32 -0.66 -15 -1 C-9.66353134 -2.77882289 -5.04741524 -2.44723163 0 0 Z " fill="#EBF6F5" transform="translate(110,71)"/>
<path d="M0 0 C0.33 0 0.66 0 1 0 C0.99476318 0.80630859 0.98952637 1.61261719 0.98413086 2.44335938 C0.96322638 6.12889819 0.95029714 9.81442448 0.9375 13.5 C0.92912109 14.7684375 0.92074219 16.036875 0.91210938 17.34375 C0.89565863 23.66083499 0.99908986 29.75810372 2 36 C1.34 36 0.68 36 0 36 C-2.57123342 29.26159517 -2.05278562 22.86717793 -1.6875 15.75 C-1.63916016 14.56664063 -1.59082031 13.38328125 -1.54101562 12.1640625 C-1.14882324 3.44646972 -1.14882324 3.44646972 0 0 Z " fill="#DDF5F7" transform="translate(39,96)"/>
<path d="M0 0 C0.33 0.66 0.66 1.32 1 2 C0.34 2 -0.32 2 -1 2 C-1 3.32 -1 4.64 -1 6 C-5.46839215 6.21278058 -8.82262526 5.59138085 -13 4 C-9.41420832 -0.98892755 -5.61771415 -0.43213186 0 0 Z " fill="#068C9E" transform="translate(140,88)"/>
<path d="M0 0 C0.7425 0.2475 1.485 0.495 2.25 0.75 C-4.39206642 9.87177122 -4.39206642 9.87177122 -7.75 12.75 C-8.41 12.75 -9.07 12.75 -9.75 12.75 C-9.75 11.76 -9.75 10.77 -9.75 9.75 C-9.09 9.42 -8.43 9.09 -7.75 8.75 C-7.62625 7.986875 -7.5025 7.22375 -7.375 6.4375 C-6.38396063 2.17603069 -4.58030853 -0.41639168 0 0 Z " fill="#0F8B99" transform="translate(169.75,155.25)"/>
<path d="M0 0 C0.66 0 1.32 0 2 0 C2 2.97 2 5.94 2 9 C2.66 8.67 3.32 8.34 4 8 C6.3329866 7.95977609 8.66706666 7.95679753 11 8 C11 8.66 11 9.32 11 10 C10.30132812 10.20496094 9.60265625 10.40992188 8.8828125 10.62109375 C7.97273438 10.89050781 7.06265625 11.15992188 6.125 11.4375 C4.76761719 11.83775391 4.76761719 11.83775391 3.3828125 12.24609375 C1.01724619 12.92613826 1.01724619 12.92613826 -1 14 C-2.13732426 10.59598052 -1.83989957 8.22543336 -1.0625 4.75 C-0.86785156 3.85796875 -0.67320313 2.9659375 -0.47265625 2.046875 C-0.31667969 1.37140625 -0.16070312 0.6959375 0 0 Z " fill="#268997" transform="translate(90,123)"/>
<path d="M0 0 C0.99 0 1.98 0 3 0 C3 5.94 3 11.88 3 18 C2.01 18 1.02 18 0 18 C0 12.06 0 6.12 0 0 Z " fill="#0E9EC4" transform="translate(41,104)"/>
<path d="M0 0 C1.60379341 -0.05416188 3.20811406 -0.09286638 4.8125 -0.125 C5.70582031 -0.14820313 6.59914062 -0.17140625 7.51953125 -0.1953125 C10 0 10 0 13 2 C13 4 13 4 11.8125 5.625 C9.44439338 7.42149467 7.90102749 7.23521845 5 7 C5 4 5 4 6 3 C4.35 3 2.7 3 1 3 C0.67 2.01 0.34 1.02 0 0 Z " fill="#068C9B" transform="translate(129,131)"/>
<path d="M0 0 C1.32 0.33 2.64 0.66 4 1 C3.67 2.32 3.34 3.64 3 5 C3.66 5.33 4.32 5.66 5 6 C4.34 6 3.68 6 3 6 C3 7.32 3 8.64 3 10 C1.35 10 -0.3 10 -2 10 C-3.0625 8.1875 -3.0625 8.1875 -4 6 C-3.67 5.01 -3.34 4.02 -3 3 C-0.9375 2.3125 -0.9375 2.3125 1 2 C0.67 1.34 0.34 0.68 0 0 Z " fill="#0A8EAD" transform="translate(135,116)"/>
<path d="M0 0 C0.33 0 0.66 0 1 0 C2.03026944 6.69675136 2.10152799 13.2314676 2 20 C3.32 20.33 4.64 20.66 6 21 C6 21.66 6 22.32 6 23 C4.35 23 2.7 23 1 23 C1 27.62 1 32.24 1 37 C0.67 37 0.34 37 0 37 C0 24.79 0 12.58 0 0 Z " fill="#0B8289" transform="translate(114,113)"/>
<path d="M0 0 C4.18423892 3.50897269 8.19588166 7.08060535 12 11 C9.03 10.505 9.03 10.505 6 10 C6 9.34 6 8.68 6 8 C3.69 7.67 1.38 7.34 -1 7 C-1.33 6.01 -1.66 5.02 -2 4 C-1.34 4 -0.68 4 0 4 C0 2.68 0 1.36 0 0 Z " fill="#DDEFF5" transform="translate(58,162)"/>
<path d="M0 0 C5.28 0 10.56 0 16 0 C16 0.99 16 1.98 16 3 C10.72 3 5.44 3 0 3 C0 2.01 0 1.02 0 0 Z " fill="#E8F8FC" transform="translate(116,111)"/>
<path d="M0 0 C1.0625 1.875 1.0625 1.875 2 4 C1 6 1 6 -1.8125 7.1875 C-4.85961076 7.96421451 -6.13749363 8.10096399 -9 7 C-3.34042553 0 -3.34042553 0 0 0 Z " fill="#E0F2F3" transform="translate(86,87)"/>
<path d="M0 0 C-0.33 0.66 -0.66 1.32 -1 2 C-4.0625 2.625 -4.0625 2.625 -7 3 C-7 3.33 -7 3.66 -7 4 C-12.19209404 4.21192221 -16.126739 3.5912689 -21 2 C-21 1.67 -21 1.34 -21 1 C-13.97195301 0.14626761 -7.07721931 -0.12109311 0 0 Z " fill="#1E98BD" transform="translate(115,182)"/>
<path d="M0 0 C0.66 0.33 1.32 0.66 2 1 C1.67 1.66 1.34 2.32 1 3 C0.47197912 7.81278044 0.14359105 12.38923205 2.875 16.5625 C4.76284333 19.03988626 4.76284333 19.03988626 7 20 C7 20.66 7 21.32 7 22 C5.02 22 3.04 22 1 22 C-0.66867342 17.54108579 -1.40681492 13.4940291 -1.75 8.75 C-1.84796875 7.52796875 -1.9459375 6.3059375 -2.046875 5.046875 C-2 2 -2 2 0 0 Z " fill="#309DAD" transform="translate(76,116)"/>
<path d="M0 0 C1.98 0 3.96 0 6 0 C5.67 0.66 5.34 1.32 5 2 C3.68 2 2.36 2 1 2 C1 2.66 1 3.32 1 4 C2.32 4 3.64 4 5 4 C5 7 5 7 3.5 8.6875 C3.005 9.120625 2.51 9.55375 2 10 C2.66 9.67 3.32 9.34 4 9 C6.3329866 8.95977609 8.66706666 8.95679753 11 9 C10.67 9.66 10.34 10.32 10 11 C7.03 11 4.06 11 1 11 C0.67 7.37 0.34 3.74 0 0 Z " fill="#3E94A5" transform="translate(116,90)"/>
<path d="M0 0 C0 3.10551666 -0.5393715 4.35261084 -2 7 C-3.32 7 -4.64 7 -6 7 C-6.2165625 5.824375 -6.2165625 5.824375 -6.4375 4.625 C-6.87798925 2.03578982 -6.87798925 2.03578982 -8 0 C-5.13822943 -1.43088528 -3.06624227 -0.59991697 0 0 Z " fill="#C9E4F0" transform="translate(149,124)"/>
<path d="M0 0 C5.43806647 -0.36253776 5.43806647 -0.36253776 7.9375 1.25 C9 3 9 3 8.75 5.125 C8 7 8 7 7 8 C4.625 8.375 4.625 8.375 2 8 C0.1875 5.5 0.1875 5.5 -1 3 C1.475 3.99 1.475 3.99 4 5 C3.24849977 1.72226496 3.24849977 1.72226496 0 0 Z " fill="#0A8496" transform="translate(134,98)"/>
<path d="M0 0 C1.98 0.66 3.96 1.32 6 2 C3.38058783 3.74627478 1.96175123 4.38722388 -1 5 C-1.33 6.65 -1.66 8.3 -2 10 C-1.01 10.33 -0.02 10.66 1 11 C1 11.66 1 12.32 1 13 C0.34 13 -0.32 13 -1 13 C-1 12.34 -1 11.68 -1 11 C-1.66 11 -2.32 11 -3 11 C-3 10.01 -3 9.02 -3 8 C-3.99 7.67 -4.98 7.34 -6 7 C-4.02 4.69 -2.04 2.38 0 0 Z " fill="#179AB0" transform="translate(144,74)"/>
<path d="M0 0 C0 0.33 0 0.66 0 1 C-2.97 0.67 -5.94 0.34 -9 0 C-9 0.66 -9 1.32 -9 2 C-8.401875 2.12375 -7.80375 2.2475 -7.1875 2.375 C-5 3 -5 3 -2 5 C-5.36704285 5.2295711 -7.41370268 5.33943529 -10.375 3.625 C-10.91125 3.08875 -11.4475 2.5525 -12 2 C-12 1.34 -12 0.68 -12 0 C-13.98 0.99 -13.98 0.99 -16 2 C-16 1.01 -16 0.02 -16 -1 C-10.31150252 -2.49697302 -5.58190932 -1.3348044 0 0 Z " fill="#26A3BE" transform="translate(136,42)"/>
<path d="M0 0 C2.29834986 1.12244993 4.18477881 2.18477881 6 4 C7.51469448 4.23192865 9.03754562 4.41215238 10.5625 4.5625 C11.38878906 4.64628906 12.21507812 4.73007813 13.06640625 4.81640625 C13.70449219 4.87699219 14.34257812 4.93757812 15 5 C15 5.99 15 6.98 15 8 C14.67 7.67 14.34 7.34 14 7 C12.48071962 6.92820036 10.95832518 6.91607993 9.4375 6.9375 C8.61121094 6.94652344 7.78492188 6.95554688 6.93359375 6.96484375 C5.97646484 6.98224609 5.97646484 6.98224609 5 7 C5 7.66 5 8.32 5 9 C4.34 9 3.68 9 3 9 C2.87625 8.030625 2.7525 7.06125 2.625 6.0625 C2.315625 4.5465625 2.315625 4.5465625 2 3 C1.34 2.67 0.68 2.34 0 2 C0.33 2.99 0.66 3.98 1 5 C0.01 5 -0.98 5 -2 5 C-2 4.34 -2 3.68 -2 3 C-2.66 2.67 -3.32 2.34 -4 2 C-2.3125 0.8125 -2.3125 0.8125 0 0 Z " fill="#24909A" transform="translate(125,125)"/>
<path d="M0 0 C0.99 0.66 1.98 1.32 3 2 C2.75 4.875 2.75 4.875 2 8 C-0.0625 9.375 -0.0625 9.375 -2 10 C-1.67 9.01 -1.34 8.02 -1 7 C-2.32 6.67 -3.64 6.34 -5 6 C-4.67 4.68 -4.34 3.36 -4 2 C-2.35 2.33 -0.7 2.66 1 3 C0.67 2.01 0.34 1.02 0 0 Z " fill="#C8E3F4" transform="translate(148,92)"/>
<path d="M0 0 C0.99 0.66 1.98 1.32 3 2 C1.85546875 3.48828125 1.85546875 3.48828125 0 5 C-2.69921875 5.29296875 -2.69921875 5.29296875 -5.6875 5.1875 C-6.68136719 5.16042969 -7.67523438 5.13335937 -8.69921875 5.10546875 C-9.45847656 5.07066406 -10.21773438 5.03585938 -11 5 C-11 4.01 -11 3.02 -11 2 C-10.28972656 1.93941406 -9.57945313 1.87882812 -8.84765625 1.81640625 C-7.46900391 1.69072266 -7.46900391 1.69072266 -6.0625 1.5625 C-5.14597656 1.48128906 -4.22945313 1.40007812 -3.28515625 1.31640625 C-1.03840268 1.23955024 -1.03840268 1.23955024 0 0 Z " fill="#CEE9F1" transform="translate(127,99)"/>
<path d="M0 0 C0.33 0 0.66 0 1 0 C1.0270043 1.45823212 1.04639787 2.91660675 1.0625 4.375 C1.07410156 5.18710938 1.08570313 5.99921875 1.09765625 6.8359375 C1 9 1 9 0 11 C-0.66 11 -1.32 11 -2 11 C-2.28875 11.639375 -2.5775 12.27875 -2.875 12.9375 C-4 15 -4 15 -6 16 C-8.125 15.5625 -8.125 15.5625 -10 15 C-10 14.34 -10 13.68 -10 13 C-9.2575 12.7525 -8.515 12.505 -7.75 12.25 C-4.64442225 10.83837375 -3.06008733 9.72225826 -1 7 C-0.19234122 3.35278304 -0.19234122 3.35278304 0 0 Z " fill="#D8F0F1" transform="translate(127,79)"/>
<path d="M0 0 C0.66 0.33 1.32 0.66 2 1 C2 1.66 2 2.32 2 3 C0.68 3.33 -0.64 3.66 -2 4 C-1.34 4.33 -0.68 4.66 0 5 C0 6.98 0 8.96 0 11 C-1.32 11 -2.64 11 -4 11 C-4 10.34 -4 9.68 -4 9 C-4.66 9 -5.32 9 -6 9 C-4.47291037 5.56404834 -2.40072955 2.88087546 0 0 Z " fill="#269FB3" transform="translate(60,60)"/>
<path d="M0 0 C1.76462683 3.08809695 2 4.23312136 2 8 C3.32 8.33 4.64 8.66 6 9 C5.67 7.68 5.34 6.36 5 5 C5.99 5.33 6.98 5.66 8 6 C8 7.65 8 9.3 8 11 C7.34 11 6.68 11 6 11 C6.33 12.32 6.66 13.64 7 15 C0.04151292 8.224631 0.04151292 8.224631 -0.125 3.3125 C-0.08375 2.219375 -0.0425 1.12625 0 0 Z " fill="#E2F6F8" transform="translate(87,139)"/>
<path d="M0 0 C0.99 0 1.98 0 3 0 C3.309375 0.804375 3.61875 1.60875 3.9375 2.4375 C4.76335345 4.89080405 4.76335345 4.89080405 6 6 C6.04063832 7.66617115 6.042721 9.33388095 6 11 C5.34 11 4.68 11 4 11 C3.34 9.35 2.68 7.7 2 6 C1.34 7.32 0.68 8.64 0 10 C-0.74926071 6.33694766 -1.2380014 3.57644848 0 0 Z " fill="#1F9BBF" transform="translate(41,122)"/>
<path d="M0 0 C1.27617188 0.29970703 1.27617188 0.29970703 2.578125 0.60546875 C9.63620907 2.07392919 16.64059788 2.42437762 23.828125 2.79296875 C23.828125 3.12296875 23.828125 3.45296875 23.828125 3.79296875 C8.19301019 3.96562646 8.19301019 3.96562646 2.453125 3.23046875 C-0.99756361 2.47616218 -0.99756361 2.47616218 -3.171875 3.79296875 C-3.831875 3.13296875 -4.491875 2.47296875 -5.171875 1.79296875 C-2.171875 -0.20703125 -2.171875 -0.20703125 0 0 Z " fill="#DBF2FB" transform="translate(92.171875,183.20703125)"/>
<path d="M0 0 C0.33 0.99 0.66 1.98 1 3 C3.97 3 6.94 3 10 3 C10 3.66 10 4.32 10 5 C8.02 5.33 6.04 5.66 4 6 C3.67 6.99 3.34 7.98 3 9 C2.34 9 1.68 9 1 9 C0.67 9.99 0.34 10.98 0 12 C0 8.04 0 4.08 0 0 Z " fill="#0A8A9F" transform="translate(115,121)"/>
<path d="M0 0 C0.66 0.33 1.32 0.66 2 1 C2.144375 1.804375 2.28875 2.60875 2.4375 3.4375 C2.76502717 6.34440658 2.76502717 6.34440658 6 8 C6.1875 11.625 6.1875 11.625 6 15 C3.69534766 12.03786426 1.72409552 8.97847243 -0.1875 5.75 C-0.71730469 4.85796875 -1.24710938 3.9659375 -1.79296875 3.046875 C-2.39044922 2.03367187 -2.39044922 2.03367187 -3 1 C-2.01 0.67 -1.02 0.34 0 0 Z " fill="#DFF5F9" transform="translate(173,65)"/>
<path d="M0 0 C2.6875 -0.375 2.6875 -0.375 6 0 C8.06398076 1.823983 9.39041053 3.72763839 11 6 C10.67 6.66 10.34 7.32 10 8 C9.34 8 8.68 8 8 8 C7.566875 7.360625 7.13375 6.72125 6.6875 6.0625 C4.59150148 3.50072404 3.21700528 3.34778436 0 3 C0 2.01 0 1.02 0 0 Z " fill="#D0E6EF" transform="translate(116,130)"/>
<path d="M0 0 C1.32 0.33 2.64 0.66 4 1 C4 2.32 4 3.64 4 5 C5.98 5 7.96 5 10 5 C8.71034824 6.37562854 7.37310707 7.70766393 6 9 C5.34 9 4.68 9 4 9 C4 8.01 4 7.02 4 6 C2.68 5.67 1.36 5.34 0 5 C0 3.35 0 1.7 0 0 Z " fill="#1F8DAB" transform="translate(150,135)"/>
<path d="M0 0 C0.66 0.33 1.32 0.66 2 1 C1.01 2.485 1.01 2.485 0 4 C0.66 4 1.32 4 2 4 C2 4.66 2 5.32 2 6 C0.68 5.67 -0.64 5.34 -2 5 C-2.33 5.99 -2.66 6.98 -3 8 C-5.97 7.505 -5.97 7.505 -9 7 C-3.51752022 1.21293801 -3.51752022 1.21293801 0 0 Z " fill="#2B9EB5" transform="translate(78,47)"/>
<path d="M0 0 C2.63249349 2.45699392 4.78137264 4.56568654 6 8 C5.67 8.99 5.34 9.98 5 11 C4.01 10.01 3.02 9.02 2 8 C1.34 8.66 0.68 9.32 0 10 C-0.66 9.01 -1.32 8.02 -2 7 C-1.125 4.4375 -1.125 4.4375 0 2 C0 1.34 0 0.68 0 0 Z " fill="#229CAE" transform="translate(172,70)"/>
<path d="M0 0 C0.33 0.99 0.66 1.98 1 3 C2.65 2.67 4.3 2.34 6 2 C6 2.99 6 3.98 6 5 C5.34 5 4.68 5 4 5 C3.67 6.32 3.34 7.64 3 9 C2.34 9 1.68 9 1 9 C0.87625 8.030625 0.7525 7.06125 0.625 6.0625 C0.41875 5.051875 0.2125 4.04125 0 3 C-0.66 2.67 -1.32 2.34 -2 2 C-1.34 1.34 -0.68 0.68 0 0 Z M-1 5 C-0.67 5.66 -0.34 6.32 0 7 C-0.66 6.67 -1.32 6.34 -2 6 C-1.67 5.67 -1.34 5.34 -1 5 Z " fill="#E2ECEB" transform="translate(169,159)"/>
<path d="M0 0 C0 3.90838866 -1.50567876 5.11594107 -4 8 C-2.60240095 11.54518884 -2.60240095 11.54518884 -1 15 C-2.32 14.67 -3.64 14.34 -5 14 C-5.72936048 10.95657765 -6.23574867 8.13283784 -6 5 C-4.23893579 2.62662731 -2.5475733 1.61173005 0 0 Z " fill="#26AAC8" transform="translate(79,137)"/>
<path d="M0 0 C0 0.33 0 0.66 0 1 C-5.11236781 3.07434732 -9.46330893 3.24424065 -14.875 3.125 C-16.050625 3.11146484 -16.050625 3.11146484 -17.25 3.09765625 C-19.16680055 3.07428063 -21.08344191 3.03841653 -23 3 C-23 2.67 -23 2.34 -23 2 C-21.08404518 1.66259915 -19.16720278 1.33023588 -17.25 1 C-16.18265625 0.814375 -15.1153125 0.62875 -14.015625 0.4375 C-9.36989782 -0.23649151 -4.68893876 0 0 0 Z " fill="#408798" transform="translate(139,108)"/>
<path d="M0 0 C2.97 0.495 2.97 0.495 6 1 C6 1.66 6 2.32 6 3 C5.01 3 4.02 3 3 3 C2.9175 3.61875 2.835 4.2375 2.75 4.875 C2 7 2 7 -0.0625 8.25 C-0.701875 8.4975 -1.34125 8.745 -2 9 C-2 9.66 -2 10.32 -2 11 C-2.66 11 -3.32 11 -4 11 C-3.45388137 7.17716957 -1.76181385 5.58920048 1 3 C1.33 2.34 1.66 1.68 2 1 C1.34 0.67 0.68 0.34 0 0 Z " fill="#1A98BE" transform="translate(148,53)"/>
<path d="M0 0 C0.625 1.875 0.625 1.875 1 4 C0.34 4.66 -0.32 5.32 -1 6 C-1.6425235 8.06874034 -1.6425235 8.06874034 -2 10 C-2.99 9.67 -3.98 9.34 -5 9 C-5.33 7.35 -5.66 5.7 -6 4 C-5.34 3.67 -4.68 3.34 -4 3 C-3.34 3.33 -2.68 3.66 -2 4 C-1.34 2.68 -0.68 1.36 0 0 Z " fill="#18969F" transform="translate(88,134)"/>
<path d="M0 0 C0.66 0 1.32 0 2 0 C2 0.66 2 1.32 2 2 C2.99 2 3.98 2 5 2 C4.45276317 5.37462715 3.9451 7.08235 2 10 C-0.475 9.01 -0.475 9.01 -3 8 C-1.68 7.34 -0.36 6.68 1 6 C0.835 5.38125 0.67 4.7625 0.5 4.125 C0 2 0 2 0 0 Z " fill="#E5F6F9" transform="translate(84,128)"/>
<path d="M0 0 C0.66 0 1.32 0 2 0 C1.80664062 0.56847656 1.61328125 1.13695313 1.4140625 1.72265625 C-0.18136423 6.45364938 -1.66900586 11.18794425 -3 16 C-3.33 16 -3.66 16 -4 16 C-3.67 13.03 -3.34 10.06 -3 7 C-3.66 7 -4.32 7 -5 7 C-5.33 5.68 -5.66 4.36 -6 3 C-3 4 -3 4 -2 6 C-1.34 4.02 -0.68 2.04 0 0 Z " fill="#DBF0F7" transform="translate(44,80)"/>
<path d="M0 0 C0.66 0 1.32 0 2 0 C2 0.99 2 1.98 2 3 C3.65 3 5.3 3 7 3 C7 2.01 7 1.02 7 0 C8.65 0.33 10.3 0.66 12 1 C10.35 2.65 8.7 4.3 7 6 C4.69 5.34 2.38 4.68 0 4 C0 2.68 0 1.36 0 0 Z " fill="#07A4BB" transform="translate(124,64)"/>
<path d="M0 0 C-0.66 0 -1.32 0 -2 0 C-2 0.66 -2 1.32 -2 2 C-2.66 2 -3.32 2 -4 2 C-4 4.31 -4 6.62 -4 9 C-4.99 8.67 -5.98 8.34 -7 8 C-7 5.36 -7 2.72 -7 0 C-3.98968256 -0.93423645 -3.13349732 -1.04449911 0 0 Z " fill="#22A2B4" transform="translate(86,147)"/>
<path d="M0 0 C3.3 0 6.6 0 10 0 C10.33 0.99 10.66 1.98 11 3 C7.37 3 3.74 3 0 3 C0 2.01 0 1.02 0 0 Z " fill="#D7EDEA" transform="translate(116,121)"/>
<path d="M0 0 C3.2578125 -0.29296875 3.2578125 -0.29296875 7.125 -0.1875 C9.04699219 -0.14689453 9.04699219 -0.14689453 11.0078125 -0.10546875 C11.99523437 -0.07066406 12.98265625 -0.03585938 14 0 C14 0.33 14 0.66 14 1 C8.42932723 2.59162079 3.78898419 3.20674944 -2 3 C-1.34 2.01 -0.68 1.02 0 0 Z " fill="#099DC6" transform="translate(106,41)"/>
<path d="M0 0 C1.5625 1.75 1.5625 1.75 3 4 C2.6875 6.25 2.6875 6.25 2 8 C0.35 7.67 -1.3 7.34 -3 7 C-2.38722388 4.03824877 -1.74627478 2.61941217 0 0 Z " fill="#41B7D0" transform="translate(81,139)"/>
<path d="M0 0 C0.66 0.66 1.32 1.32 2 2 C1.01 2.495 1.01 2.495 0 3 C0 3.99 0 4.98 0 6 C-3.14624993 6.26218749 -4.61837017 6.24754367 -7.3125 4.5 C-7.869375 4.005 -8.42625 3.51 -9 3 C-6.03 2.01 -3.06 1.02 0 0 Z " fill="#E4EAF6" transform="translate(141,180)"/>
<path d="M0 0 C0.99 0 1.98 0 3 0 C3.33 0.66 3.66 1.32 4 2 C4.66 1.34 5.32 0.68 6 0 C6.125 6.75 6.125 6.75 5 9 C4.34 9 3.68 9 3 9 C2.01 6.03 1.02 3.06 0 0 Z " fill="#22A0B3" transform="translate(42,134)"/>
<path d="M0 0 C0.33 0.66 0.66 1.32 1 2 C-0.32 3.32 -1.64 4.64 -3 6 C-2.34 6.66 -1.68 7.32 -1 8 C-1 8.99 -1 9.98 -1 11 C-2.65 11 -4.3 11 -6 11 C-6 6.63204596 -5.77237852 6.25341007 -3 3.25 C-2.443125 2.63640625 -1.88625 2.0228125 -1.3125 1.390625 C-0.6628125 0.70226562 -0.6628125 0.70226562 0 0 Z " fill="#0F8395" transform="translate(132,98)"/>
<path d="M0 0 C0.66 0 1.32 0 2 0 C5.25601751 7.21225383 5.25601751 7.21225383 4.1875 10.5 C3.795625 10.995 3.40375 11.49 3 12 C0.81231819 8.2080182 0 4.37268114 0 0 Z " fill="#1BA0A9" transform="translate(178,82)"/>
<path d="M0 0 C1.04449911 3.13349732 0.93423645 3.98968256 0 7 C-0.66 7 -1.32 7 -2 7 C-1.95875 7.928125 -1.9175 8.85625 -1.875 9.8125 C-2 13 -2 13 -4 16 C-4.66 16 -5.32 16 -6 16 C-4.73130765 10.07943568 -2.86034565 5.33931188 0 0 Z " fill="#309AB2" transform="translate(49,74)"/>
<path d="M0 0 C1.5027237 0.97498145 3.00211963 1.95509389 4.5 2.9375 C5.3353125 3.48277344 6.170625 4.02804688 7.03125 4.58984375 C7.6809375 5.05519531 8.330625 5.52054688 9 6 C9 6.33 9 6.66 9 7 C6.36 7 3.72 7 1 7 C0.67 4.69 0.34 2.38 0 0 Z " fill="#25A2B1" transform="translate(153,51)"/>
<path d="M0 0 C0.66 0 1.32 0 2 0 C2 0.66 2 1.32 2 2 C2.73605469 1.98839844 3.47210938 1.97679687 4.23046875 1.96484375 C5.20628906 1.95582031 6.18210937 1.94679687 7.1875 1.9375 C8.15042969 1.92589844 9.11335938 1.91429687 10.10546875 1.90234375 C12.85576513 1.99513378 15.32479591 2.37888315 18 3 C18 3.33 18 3.66 18 4 C15.77090129 4.02714735 13.54170633 4.04646254 11.3125 4.0625 C10.07113281 4.07410156 8.82976562 4.08570313 7.55078125 4.09765625 C4.53764546 4.01478673 1.91724661 3.70839449 -1 3 C-0.67 2.01 -0.34 1.02 0 0 Z " fill="#EEF3E7" transform="translate(94,186)"/>
<path d="M0 0 C0 0.99 0 1.98 0 3 C-1.98 3.33 -3.96 3.66 -6 4 C-6.33 3.34 -6.66 2.68 -7 2 C-7.99 1.34 -8.98 0.68 -10 0 C-6.33694766 -0.74926071 -3.57644848 -1.2380014 0 0 Z " fill="#E0EBEC" transform="translate(132,185)"/>
<path d="M0 0 C1.75 0.125 1.75 0.125 4 1 C6.25 4.0625 6.25 4.0625 8 7 C7.34 7 6.68 7 6 7 C5.67 7.99 5.34 8.98 5 10 C4.67 9.34 4.34 8.68 4 8 C4.33 7.01 4.66 6.02 5 5 C2.69 5 0.38 5 -2 5 C-0.68 4.34 0.64 3.68 2 3 C1.34 2.01 0.68 1.02 0 0 Z " fill="#DCECF2" transform="translate(50,155)"/>
<path d="M0 0 C3.63 0 7.26 0 11 0 C11.33 0.99 11.66 1.98 12 3 C8.8125 3.75 8.8125 3.75 5 4 C2.0625 2.0625 2.0625 2.0625 0 0 Z " fill="#078490" transform="translate(95,156)"/>
<path d="M0 0 C2.375 0.25 2.375 0.25 5 1 C6.375 2.8125 6.375 2.8125 7 5 C6.71018504 6.34346425 6.38195265 7.67977235 6 9 C4.99712471 7.68969568 3.99777175 6.37669473 3 5.0625 C2.443125 4.33160156 1.88625 3.60070312 1.3125 2.84765625 C0 1 0 1 0 0 Z " fill="#189FAE" transform="translate(50,151)"/>
<path d="M0 0 C2.25 -0.3125 2.25 -0.3125 5 0 C7.65192512 2.22188321 8.87900431 3.85150125 9.24609375 7.3359375 C9.2496204 9.57183586 9.17478907 11.77143936 9 14 C8.67 14 8.34 14 8 14 C7.87625 12.865625 7.7525 11.73125 7.625 10.5625 C7.41875 9.386875 7.2125 8.21125 7 7 C6.34 6.67 5.68 6.34 5 6 C4.375 3.4375 4.375 3.4375 4 1 C2.68 0.67 1.36 0.34 0 0 Z " fill="#438D9B" transform="translate(116,133)"/>
<path d="M0 0 C2.4375 0.9375 2.4375 0.9375 3.75 3 C4.0903125 3.9590625 4.0903125 3.9590625 4.4375 4.9375 C3.48875 4.73125 2.54 4.525 1.5625 4.3125 C0.015625 4.126875 0.015625 4.126875 -1.5625 3.9375 C-2.2225 4.5975 -2.8825 5.2575 -3.5625 5.9375 C-3.5625 5.2775 -3.5625 4.6175 -3.5625 3.9375 C-4.2225 3.6075 -4.8825 3.2775 -5.5625 2.9375 C-3.72865255 0.52454283 -3.10791561 -0.07580282 0 0 Z " fill="#D9EFF6" transform="translate(145.5625,91.0625)"/>
<path d="M0 0 C1.32 0 2.64 0 4 0 C4 3.3 4 6.6 4 10 C0.06153846 5.69230769 0.06153846 5.69230769 -0.25 2.1875 C-0.1675 1.465625 -0.085 0.74375 0 0 Z " fill="#2DA1B1" transform="translate(121,78)"/>
<path d="M0 0 C0.66 0 1.32 0 2 0 C2 0.66 2 1.32 2 2 C1.01 2.66 0.02 3.32 -1 4 C-2.20450304 6.55183404 -2.20450304 6.55183404 -3 9 C-3.66 9 -4.32 9 -5 9 C-5 10.98 -5 12.96 -5 15 C-5.33 15 -5.66 15 -6 15 C-6.45826062 9.2717423 -5.55825861 6.5001506 -2 2 C-1.34 1.34 -0.68 0.68 0 0 Z " fill="#D5F5F9" transform="translate(93,71)"/>
<path d="M0 0 C2.475 0.99 2.475 0.99 5 2 C3.18690997 5.77727089 1.0926741 9.37269822 -1 13 C-1.93065133 10.39417629 -2.14917407 9.35801776 -1.0625 6.75 C-0.5365625 5.88375 -0.5365625 5.88375 0 5 C0.66 5 1.32 5 2 5 C1.34 3.35 0.68 1.7 0 0 Z " fill="#DFF2F7" transform="translate(49,65)"/>
<path d="M0 0 C0.99 0.33 1.98 0.66 3 1 C3.33333333 2.33333333 3.66666667 3.66666667 4 5 C4.99 5.33 5.98 5.66 7 6 C6.34 6 5.68 6 5 6 C5.33 7.32 5.66 8.64 6 10 C0.24739583 5.59375 0.24739583 5.59375 -0.9375 2.75 C-0.958125 2.1725 -0.97875 1.595 -1 1 C-0.67 0.67 -0.34 0.34 0 0 Z " fill="#DAE9F6" transform="translate(164,56)"/>
<path d="M0 0 C-1.2608012 1.03319813 -2.53403258 2.05124379 -3.8125 3.0625 C-4.87404297 3.91521484 -4.87404297 3.91521484 -5.95703125 4.78515625 C-6.63121094 5.18605469 -7.30539063 5.58695313 -8 6 C-8.99 5.67 -9.98 5.34 -11 5 C-10.34 4.67 -9.68 4.34 -9 4 C-8.67 3.01 -8.34 2.02 -8 1 C-2.59770115 -1.29885057 -2.59770115 -1.29885057 0 0 Z " fill="#1B8C95" transform="translate(160,169)"/>
<path d="M0 0 C0.33 0.99 0.66 1.98 1 3 C0.34 3 -0.32 3 -1 3 C-1.103125 3.598125 -1.20625 4.19625 -1.3125 4.8125 C-2 7 -2 7 -5 10 C-4.67 7.03 -4.34 4.06 -4 1 C-2.68 0.67 -1.36 0.34 0 0 Z " fill="#178A9D" transform="translate(145,109)"/>
<path d="M0 0 C2.31 0.66 4.62 1.32 7 2 C3.25 4 3.25 4 1 4 C0.67 4.99 0.34 5.98 0 7 C-2.31 7 -4.62 7 -7 7 C-7 6.67 -7 6.34 -7 6 C-5.02 6 -3.04 6 -1 6 C-0.67 4.02 -0.34 2.04 0 0 Z " fill="#3B8EA4" transform="translate(140,88)"/>
<path d="M0 0 C2.97 0.495 2.97 0.495 6 1 C1.375 5.875 1.375 5.875 -2 7 C-2.33 6.01 -2.66 5.02 -3 4 C-2.34 3.34 -1.68 2.68 -1 2 C-0.67 1.34 -0.34 0.68 0 0 Z " fill="#E0F1F4" transform="translate(68,48)"/>
<path d="M0 0 C1.2077558 3.62326739 0.54311128 4.64146369 -1 8 C-2.32 8 -3.64 8 -5 8 C-4.64950425 4.75791433 -4.43778819 3.38472296 -1.9375 1.1875 C-1.298125 0.795625 -0.65875 0.40375 0 0 Z " fill="#05929C" transform="translate(173,148)"/>
<path d="M0 0 C0.33 0.99 0.66 1.98 1 3 C0.01 3.495 0.01 3.495 -1 4 C-0.01 4.66 0.98 5.32 2 6 C-2.455 6.495 -2.455 6.495 -7 7 C-6.67 6.01 -6.34 5.02 -6 4 C-5.34 4 -4.68 4 -4 4 C-4 3.34 -4 2.68 -4 2 C-2.68 1.34 -1.36 0.68 0 0 Z " fill="#038B96" transform="translate(125,93)"/>
<path d="M0 0 C0.99 0.33 1.98 0.66 3 1 C3 1.99 3 2.98 3 4 C3.66 4 4.32 4 5 4 C5 4.66 5 5.32 5 6 C5.66 6 6.32 6 7 6 C7 6.99 7 7.98 7 9 C6.01 8.67 5.02 8.34 4 8 C4 7.34 4 6.68 4 6 C2.68 5.67 1.36 5.34 0 5 C0 3.35 0 1.7 0 0 Z " fill="#078B9C" transform="translate(138,81)"/>
<path d="M0 0 C0 4.38968456 -2.12805101 5.76905739 -5 9 C-5.66 7.68 -6.32 6.36 -7 5 C-6.34 5 -5.68 5 -5 5 C-5 4.34 -5 3.68 -5 3 C-5.66 3 -6.32 3 -7 3 C-7 2.34 -7 1.68 -7 1 C-6.01 1 -5.02 1 -4 1 C-3.67 1.66 -3.34 2.32 -3 3 C-2.01 2.01 -1.02 1.02 0 0 Z " fill="#32ABC7" transform="translate(84,80)"/>
<path d="M0 0 C1.65 0 3.3 0 5 0 C4.67 2.64 4.34 5.28 4 8 C2 6.8125 2 6.8125 0 5 C-0.25 2.3125 -0.25 2.3125 0 0 Z " fill="#EAF7F3" transform="translate(88,82)"/>
<path d="M0 0 C0.99 0 1.98 0 3 0 C3.33 1.65 3.66 3.3 4 5 C2.35 5.33 0.7 5.66 -1 6 C-1.042721 4.33388095 -1.04063832 2.66617115 -1 1 C-0.67 0.67 -0.34 0.34 0 0 Z " fill="#45B8D0" transform="translate(143,78)"/>
<path d="M0 0 C1.32 0 2.64 0 4 0 C4 0.66 4 1.32 4 2 C2.68 2 1.36 2 0 2 C0 1.34 0 0.68 0 0 Z M0 2 C-0.57344937 4.86724686 -0.8614515 5.8614515 -3 8 C-3.99 7.01 -4.98 6.02 -6 5 C-3.375 2 -3.375 2 0 2 Z " fill="#DFF4EE" transform="translate(162,48)"/>
<path d="M0 0 C0.33 0.66 0.66 1.32 1 2 C1.66 2 2.32 2 3 2 C3 3.32 3 4.64 3 6 C-0.91211733 4.84414715 -3.8745041 3.64465038 -7 1 C-2.25 0 -2.25 0 0 0 Z " fill="#DBF7F6" transform="translate(148,43)"/>
<path d="M0 0 C1.65 0 3.3 0 5 0 C4.67 1.32 4.34 2.64 4 4 C2.35 4.33 0.7 4.66 -1 5 C-0.67 3.35 -0.34 1.7 0 0 Z " fill="#F3F9FB" transform="translate(125,149)"/>
<path d="M0 0 C2.11180592 2.57089417 3.66306057 4.63060567 4 8 C3.34 8.66 2.68 9.32 2 10 C1.67 8.68 1.34 7.36 1 6 C0.01 6.33 -0.98 6.66 -2 7 C-2 6.01 -2 5.02 -2 4 C-1.34 4 -0.68 4 0 4 C0 2.68 0 1.36 0 0 Z " fill="#D9F3F1" transform="translate(44,141)"/>
<path d="M0 0 C2 3 2 3 2 5 C2.66 5 3.32 5 4 5 C4 6.98 4 8.96 4 11 C2.68 11.33 1.36 11.66 0 12 C0.185625 11.030625 0.37125 10.06125 0.5625 9.0625 C0.706875 8.051875 0.85125 7.04125 1 6 C0.67 5.67 0.34 5.34 0 5 C-0.04063832 3.33382885 -0.042721 1.66611905 0 0 Z " fill="#2A8A96" transform="translate(128,142)"/>
<path d="M0 0 C0.33 0 0.66 0 1 0 C1.36463732 1.74784829 1.7163078 3.49840502 2.0625 5.25 C2.25972656 6.22453125 2.45695313 7.1990625 2.66015625 8.203125 C2.98397535 10.868119 2.85503199 12.48871723 2 15 C-0.35119399 11.47320901 -0.21443452 9.97120515 -0.125 5.8125 C-0.10695312 4.72582031 -0.08890625 3.63914062 -0.0703125 2.51953125 C-0.04710937 1.68808594 -0.02390625 0.85664062 0 0 Z " fill="#2F9DB1" transform="translate(183,92)"/>
<path d="M0 0 C0 0.99 0 1.98 0 3 C-0.66 3 -1.32 3 -2 3 C-2 3.99 -2 4.98 -2 6 C-3.65 6.33 -5.3 6.66 -7 7 C-3.86206897 0 -3.86206897 0 0 0 Z " fill="#0F9BB2" transform="translate(86,82)"/>
<path d="M0 0 C2.375 0.25 2.375 0.25 5 1 C7.42363044 4.11609628 7.17392151 7.17372685 7 11 C6.01 10.34 5.02 9.68 4 9 C4.020625 8.21625 4.04125 7.4325 4.0625 6.625 C4.2741435 3.82158143 4.2741435 3.82158143 2 1.6875 C1.34 1.130625 0.68 0.57375 0 0 Z " fill="#1F909E" transform="translate(125,68)"/>
<path d="M0 0 C3.96 0 7.92 0 12 0 C8.52630934 1.73684533 6.92380063 2.30084112 3.25 2.625 C2.45078125 2.69976562 1.6515625 2.77453125 0.828125 2.8515625 C0.22484375 2.90054688 -0.3784375 2.94953125 -1 3 C-0.67 2.01 -0.34 1.02 0 0 Z " fill="#1F8AA0" transform="translate(124,182)"/>
<path d="M0 0 C2 1 2 1 3.125 3.125 C4.15945114 6.52391089 4.1385722 9.46640886 4 13 C3.67 13 3.34 13 3 13 C3 11.02 3 9.04 3 7 C2.01 7 1.02 7 0 7 C0 4.69 0 2.38 0 0 Z " fill="#099EB1" transform="translate(42,127)"/>
<path d="M0 0 C2.62561109 -0.08074203 5.24875676 -0.1403623 7.875 -0.1875 C8.99455078 -0.22520508 8.99455078 -0.22520508 10.13671875 -0.26367188 C12.3046875 -0.29296875 12.3046875 -0.29296875 16 0 C16.66 0.99 17.32 1.98 18 3 C12.06 2.34 6.12 1.68 0 1 C0 0.67 0 0.34 0 0 Z " fill="#18818D" transform="translate(117,114)"/>
<path d="M0 0 C2.475 0.495 2.475 0.495 5 1 C4.67 2.65 4.34 4.3 4 6 C2.68 5.67 1.36 5.34 0 5 C0 3.35 0 1.7 0 0 Z " fill="#06A1B7" transform="translate(152,91)"/>
<path d="M0 0 C-0.66 3.63 -1.32 7.26 -2 11 C-3.80330533 7.39338934 -4.46599103 4.91606575 -5 1 C-2 0 -2 0 0 0 Z " fill="#3FA3AF" transform="translate(89,75)"/>
<path d="M0 0 C0.66 0.33 1.32 0.66 2 1 C2.33 1.99 2.66 2.98 3 4 C4.49985609 5.66710346 4.49985609 5.66710346 6 7 C4.35 7.33 2.7 7.66 1 8 C1 6.68 1 5.36 1 4 C0.01 4 -0.98 4 -2 4 C-2 3.34 -2 2.68 -2 2 C-1.34 2 -0.68 2 0 2 C0 1.34 0 0.68 0 0 Z " fill="#30A1B7" transform="translate(122,64)"/>
<path d="M0 0 C-4.95 2.475 -4.95 2.475 -10 5 C-10.66 4.34 -11.32 3.68 -12 3 C-10.75823305 2.29773859 -9.50614401 1.61370891 -8.25 0.9375 C-7.20585937 0.36322266 -7.20585937 0.36322266 -6.140625 -0.22265625 C-4 -1 -4 -1 0 0 Z " fill="#228A96" transform="translate(148,177)"/>
<path d="M0 0 C-1.36944102 2.94956528 -2.87830409 5.52468811 -5 8 C-5.66 8 -6.32 8 -7 8 C-6.44414399 4.1090079 -4.34122117 0 0 0 Z " fill="#EFF8FE" transform="translate(169,162)"/>
<path d="M0 0 C2.97 0.495 2.97 0.495 6 1 C6 1.66 6 2.32 6 3 C5.01 3 4.02 3 3 3 C3.33 4.65 3.66 6.3 4 8 C2.68 7.34 1.36 6.68 0 6 C0.66 5.67 1.32 5.34 2 5 C1.34 3.35 0.68 1.7 0 0 Z " fill="#20A3B9" transform="translate(62,161)"/>
<path d="M0 0 C0.33 0.99 0.66 1.98 1 3 C-1 5 -1 5 -4 5.25 C-7 5 -7 5 -9 3 C-6.69 3 -4.38 3 -2 3 C-2 2.34 -2 1.68 -2 1 C-1.34 0.67 -0.68 0.34 0 0 Z " fill="#F0F7FB" transform="translate(142,125)"/>
<path d="M0 0 C1.32 0.33 2.64 0.66 4 1 C3.67 2.32 3.34 3.64 3 5 C3.66 5.33 4.32 5.66 5 6 C4.34 6 3.68 6 3 6 C3 6.66 3 7.32 3 8 C2.01 7.67 1.02 7.34 0 7 C0.185625 6.21625 0.37125 5.4325 0.5625 4.625 C1.25962266 2.02910225 1.25962266 2.02910225 0 0 Z " fill="#2098AF" transform="translate(135,116)"/>
<path d="M0 0 C0.33 0 0.66 0 1 0 C2 5 3 10 4 15 C1.48763015 12.59686362 0.04986905 11.21680482 -0.09765625 7.6171875 C-0.08605469 6.71226563 -0.07445313 5.80734375 -0.0625 4.875 C-0.05347656 3.96492188 -0.04445313 3.05484375 -0.03515625 2.1171875 C-0.02355469 1.41851562 -0.01195313 0.71984375 0 0 Z " fill="#D2F4FA" transform="translate(76,96)"/>
<path d="M0 0 C0.66 0.66 1.32 1.32 2 2 C1.625 5.625 1.625 5.625 1 9 C0.01 8.67 -0.98 8.34 -2 8 C-1.33333333 5.33333333 -0.66666667 2.66666667 0 0 Z " fill="#00919B" transform="translate(132,149)"/>
<path d="M0 0 C0.99 0 1.98 0 3 0 C3.33 1.65 3.66 3.3 4 5 C3.01 5.66 2.02 6.32 1 7 C0 6 0 6 -0.0625 2.9375 C-0.041875 1.968125 -0.02125 0.99875 0 0 Z " fill="#2891A8" transform="translate(135,150)"/>
<path d="M0 0 C2 2 4 4 6 6 C5.67 6.99 5.34 7.98 5 9 C4.67 8.34 4.34 7.68 4 7 C3.01 7 2.02 7 1 7 C0.67 4.69 0.34 2.38 0 0 Z " fill="#F7F7F3" transform="translate(88,140)"/>
<path d="M0 0 C5.5 -0.36666667 5.5 -0.36666667 7.875 1.375 C9 3 9 3 9 5 C6.5625 4.625 6.5625 4.625 4 4 C3.67 3.34 3.34 2.68 3 2 C2.01 1.34 1.02 0.68 0 0 Z " fill="#15879A" transform="translate(134,98)"/>
<path d="M0 0 C1.98 0.495 1.98 0.495 4 1 C3.67 2.32 3.34 3.64 3 5 C1.68 4.67 0.36 4.34 -1 4 C-0.67 2.68 -0.34 1.36 0 0 Z " fill="#2C907F" transform="translate(144,94)"/>
<path d="M0 0 C0 2 0 2 -2.375 4.5625 C-5 7 -5 7 -7 8 C-6.65930765 4.84859577 -6.41923159 3.39218439 -4.0625 1.1875 C-2 0 -2 0 0 0 Z " fill="#49B4CE" transform="translate(152,82)"/>
<path d="M0 0 C1.32 0.66 2.64 1.32 4 2 C3.67 2.99 3.34 3.98 3 5 C1.68 5 0.36 5 -1 5 C-0.67 3.35 -0.34 1.7 0 0 Z " fill="#2E8D84" transform="translate(144,126)"/>
<path d="M0 0 C0.99 0 1.98 0 3 0 C3.1875 2.375 3.1875 2.375 3 5 C2.01 5.66 1.02 6.32 0 7 C-0.38133299 5.0085944 -0.71325582 3.00720923 -1 1 C-0.67 0.67 -0.34 0.34 0 0 Z " fill="#F0F7F3" transform="translate(126,73)"/>
<path d="M0 0 C0.99 0.33 1.98 0.66 3 1 C1.02 3.31 -0.96 5.62 -3 8 C-3 4.42424104 -1.91159393 2.94704065 0 0 Z " fill="#E4FAFE" transform="translate(60,56)"/>
<path d="M0 0 C3.3 0 6.6 0 10 0 C10 0.99 10 1.98 10 3 C6.7 2.34 3.4 1.68 0 1 C0 0.67 0 0.34 0 0 Z " fill="#369EB7" transform="translate(94,183)"/>
<path d="M0 0 C3.3 0.99 6.6 1.98 10 3 C6 5 6 5 3 5 C3 4.01 3 3.02 3 2 C2.01 2 1.02 2 0 2 C0 1.34 0 0.68 0 0 Z " fill="#DBEFF1" transform="translate(80,179)"/>
<path d="M0 0 C2.375 0.1875 2.375 0.1875 5 1 C6.3125 3.5625 6.3125 3.5625 7 6 C3.63279613 4.60667426 2.0140476 3.0210714 0 0 Z " fill="#1A98A0" transform="translate(57,160)"/>
<path d="M0 0 C3.625 -0.1875 3.625 -0.1875 7 0 C7 0.66 7 1.32 7 2 C2.545 2.495 2.545 2.495 -2 3 C-1.34 2.01 -0.68 1.02 0 0 Z " fill="#35857F" transform="translate(94,131)"/>
<path d="M0 0 C0 1.32 0 2.64 0 4 C-1.98 4 -3.96 4 -6 4 C-5.67 3.01 -5.34 2.02 -5 1 C-3 0 -3 0 0 0 Z " fill="#0F87A1" transform="translate(158,100)"/>
<path d="M0 0 C2.4375 0.8125 2.4375 0.8125 5 2 C5.33 2.99 5.66 3.98 6 5 C3.37886292 5 1.49064888 4.68707555 -1 4 C-0.67 2.68 -0.34 1.36 0 0 Z " fill="#158CAD" transform="translate(133,98)"/>
<path d="M0 0 C2.97 0.33 5.94 0.66 9 1 C9 1.33 9 1.66 9 2 C6.69 2.33 4.38 2.66 2 3 C1.67 4.98 1.34 6.96 1 9 C0.67 9 0.34 9 0 9 C0 6.03 0 3.06 0 0 Z " fill="#C6E9EC" transform="translate(92,93)"/>
<path d="M0 0 C2.64 0 5.28 0 8 0 C7.67 0.99 7.34 1.98 7 3 C4.625 3.1875 4.625 3.1875 2 3 C1.34 2.01 0.68 1.02 0 0 Z " fill="#0C8BA9" transform="translate(131,88)"/>
<path d="M0 0 C-1.32 1.32 -2.64 2.64 -4 4 C-4 3.01 -4 2.02 -4 1 C-4.99 1 -5.98 1 -7 1 C-7.33 1.66 -7.66 2.32 -8 3 C-8 2.01 -8 1.02 -8 0 C-5.13822943 -1.43088528 -3.06624227 -0.59991697 0 0 Z " fill="#1D99AC" transform="translate(84,80)"/>
<path d="M0 0 C0.66 0 1.32 0 2 0 C1.67 1.65 1.34 3.3 1 5 C-1.31 5.33 -3.62 5.66 -6 6 C-4 4 -2 2 0 0 Z " fill="#349DB3" transform="translate(67,54)"/>
<path d="M0 0 C0.99 0.33 1.98 0.66 3 1 C3 2.66666667 3 4.33333333 3 6 C1.02 5.34 -0.96 4.68 -3 4 C-2.34 3.67 -1.68 3.34 -1 3 C-0.67 2.01 -0.34 1.02 0 0 Z " fill="#269DB2" transform="translate(77,172)"/>
<path d="M0 0 C0.66 0 1.32 0 2 0 C2.66 1.65 3.32 3.3 4 5 C2.68 5.33 1.36 5.66 0 6 C-0.33 5.34 -0.66 4.68 -1 4 C-0.34 4 0.32 4 1 4 C1 3.34 1 2.68 1 2 C0.34 1.67 -0.32 1.34 -1 1 C-0.67 0.67 -0.34 0.34 0 0 Z " fill="#E8EAEC" transform="translate(160,168)"/>
<path d="M0 0 C0.99 0.33 1.98 0.66 3 1 C1.37660195 2.70884005 -0.29319053 4.37446717 -2 6 C-2.66 6 -3.32 6 -4 6 C-4 5.01 -4 4.02 -4 3 C-2.1875 1.25 -2.1875 1.25 0 0 Z " fill="#3A909D" transform="translate(164,162)"/>
<path d="M0 0 C0.86625 0.556875 0.86625 0.556875 1.75 1.125 C0.76 1.62 0.76 1.62 -0.25 2.125 C-0.91 1.795 -1.57 1.465 -2.25 1.125 C-1.92 2.115 -1.59 3.105 -1.25 4.125 C-2.24 4.125 -3.23 4.125 -4.25 4.125 C-4.25 3.465 -4.25 2.805 -4.25 2.125 C-4.91 1.795 -5.57 1.465 -6.25 1.125 C-2.80384615 -1.09038462 -2.80384615 -1.09038462 0 0 Z " fill="#1E94AB" transform="translate(127.25,125.875)"/>
<path d="M0 0 C1.98 0 3.96 0 6 0 C6 1.32 6 2.64 6 4 C5.01 4 4.02 4 3 4 C3 3.34 3 2.68 3 2 C2.01 2 1.02 2 0 2 C0 1.34 0 0.68 0 0 Z " fill="#1C809F" transform="translate(151,120)"/>
<path d="M0 0 C0.33 0 0.66 0 1 0 C1.1875 3.375 1.1875 3.375 1 7 C0.01 7.66 -0.98 8.32 -2 9 C-1.125 1.125 -1.125 1.125 0 0 Z " fill="#34A0B7" transform="translate(42,91)"/>
<path d="M0 0 C2.4375 0.75 2.4375 0.75 5 2 C5.8125 4.125 5.8125 4.125 6 6 C4.68 5.34 3.36 4.68 2 4 C2 3.34 2 2.68 2 2 C1.34 2 0.68 2 0 2 C0 1.34 0 0.68 0 0 Z " fill="#168F95" transform="translate(84,85)"/>
<path d="M0 0 C0.66 0.66 1.32 1.32 2 2 C1.2884375 2.556875 1.2884375 2.556875 0.5625 3.125 C-1.52205802 5.62646962 -1.64621491 7.81593418 -2 11 C-2.33 11 -2.66 11 -3 11 C-3.36923077 3.49230769 -3.36923077 3.49230769 -1.5 1 C-1.005 0.67 -0.51 0.34 0 0 Z " fill="#22A9BC" transform="translate(140,75)"/>
<path d="M0 0 C0.99 0 1.98 0 3 0 C3.185625 0.8971875 3.185625 0.8971875 3.375 1.8125 C3.95475985 4.26231348 3.95475985 4.26231348 6 7 C4 6 2 5 0 4 C0 2.68 0 1.36 0 0 Z " fill="#1FA8AF" transform="translate(68,168)"/>
<path d="M0 0 C0.33 0 0.66 0 1 0 C1 1.98 1 3.96 1 6 C0.01 6 -0.98 6 -2 6 C-2.66 4.35 -3.32 2.7 -4 1 C-3.01 1.33 -2.02 1.66 -1 2 C-0.67 1.34 -0.34 0.68 0 0 Z " fill="#1EA2C0" transform="translate(46,88)"/>
<path d="M0 0 C0.99 0.99 1.98 1.98 3 3 C2.67 3.66 2.34 4.32 2 5 C0.35 5 -1.3 5 -3 5 C-3 3.68 -3 2.36 -3 1 C-2.34 1 -1.68 1 -1 1 C-0.67 0.67 -0.34 0.34 0 0 Z " fill="#1A8DAA" transform="translate(121,85)"/>
<path d="M0 0 C1.9375 0.375 1.9375 0.375 4 1 C4.33 1.66 4.66 2.32 5 3 C4.67 3.66 4.34 4.32 4 5 C2.68 4.34 1.36 3.68 0 3 C0 2.01 0 1.02 0 0 Z " fill="#0CA3BD" transform="translate(109,66)"/>
<path d="M0 0 C1.65 1.65 3.3 3.3 5 5 C3.68 5.33 2.36 5.66 1 6 C1 5.34 1 4.68 1 4 C0.34 4 -0.32 4 -1 4 C-0.67 2.68 -0.34 1.36 0 0 Z " fill="#209EAC" transform="translate(167,64)"/>
<path d="M0 0 C2.97 0.99 5.94 1.98 9 3 C9 3.33 9 3.66 9 4 C3.375 4.25 3.375 4.25 0 2 C0 1.34 0 0.68 0 0 Z " fill="#1D9DC3" transform="translate(125,43)"/>
</svg>
